<svg width="418" height="766" viewBox="0 0 418 766" fill="none" xmlns="http://www.w3.org/2000/svg">
<g filter="url(#filter0_d)">
<path fill-rule="evenodd" clip-rule="evenodd" d="M354.911 12.8561C424.808 -20.374 515.524 13.9795 567.617 79.5753C618.383 143.501 603.989 245.759 610.129 334.227C614.791 401.415 615.473 466.713 598.949 531.088C582.237 596.196 560.361 662.028 515.461 703.032C470.155 744.407 411.477 749.187 354.911 753.949C294.046 759.074 231.62 765.256 177.317 731.501C117.332 694.214 62.2371 636.261 40.8213 558.71C19.3227 480.86 23.5121 386.091 63.6878 320.029C101.392 258.031 188.538 287.56 236.462 237.012C293.051 177.323 285.1 46.0455 354.911 12.8561Z" fill="#961396" fill-opacity="0.3"/>
</g>
<path fill-rule="evenodd" clip-rule="evenodd" d="M190.065 143.561C194.708 141.607 198.479 137.75 199.657 131.106C203.054 111.964 179.454 98.757 172.768 104.629C166.082 110.502 160.798 134.296 166.071 140.275C168.174 142.66 173.401 144.729 179.141 145.14L169.963 167.345L188.172 181.224L190.065 143.561Z" fill="#B28B67"/>
<path fill-rule="evenodd" clip-rule="evenodd" d="M183.465 119.876C182.575 131.301 180.59 136.495 177.51 135.459C172.888 133.904 169.018 129.162 166.991 128.48C165.513 127.982 165.811 130.251 166.767 132.181C167.556 133.772 171.474 136.369 171.443 138.416C171.413 140.462 168.326 137.832 168.309 139.046C168.279 141.053 167.677 144.643 170.663 145.649C173.686 146.666 182.371 148.297 183.934 143.564C184.942 140.509 185.665 133.719 186.102 123.194C186.286 123.23 186.473 123.28 186.662 123.344C189.252 124.215 191.315 127.371 191.271 130.392C191.248 131.925 190.686 133.13 189.8 133.83C190.859 135.981 192.047 138.257 193.412 140.651C198.701 138.749 202.744 129.332 197.778 117.307C196.437 111.784 193.275 108.01 189.511 105.485C186.469 102.96 183.292 101.721 180.594 101.713C175.323 100.469 170.596 100.76 169.248 101.423C169.162 107.235 170.102 109.285 178.351 111.908C180.358 113.838 181.884 116.511 183.465 119.876Z" fill="#191847"/>
<path fill-rule="evenodd" clip-rule="evenodd" d="M79.3799 258.921C74.3357 248.837 61.727 255.512 61.7346 263.861C61.7546 285.78 75.3242 389.838 76.0326 396.408C76.7411 402.978 84.3308 405.127 84.7728 396.918C85.476 383.857 86.7826 338.577 85.4753 317.511C85.0935 311.358 84.6908 305.411 84.2853 299.839C91.417 318.725 102.262 345.418 116.819 379.919L124.91 374.47C118.556 343.613 113.346 321.829 109.28 309.118C102.318 287.353 95.7902 268.714 93.0428 262.148C89.4136 253.476 83.5271 254.627 79.3799 258.921Z" fill="#B28B67"/>
<path fill-rule="evenodd" clip-rule="evenodd" d="M124.331 357.334L96.5614 260.362C89.9088 244.587 71.2566 263.572 73.5253 272.721C78.6759 293.493 104.871 360.74 106.405 366.929L124.331 357.334Z" fill="black"/>
<path fill-rule="evenodd" clip-rule="evenodd" d="M61.032 271.432C61.032 298.918 69.2052 363.528 69.2109 369.58L89.0101 368.596C85.5491 312.422 84.0896 284.145 84.6315 283.764C85.8508 282.907 134.615 293.713 149.24 294.529C170.33 295.705 179.054 276.633 179.762 240.44H138.911C103.979 246.587 81.0208 250.862 70.0355 253.265C62.981 254.809 61.032 263.86 61.032 271.432Z" fill="black"/>
<path fill-rule="evenodd" clip-rule="evenodd" d="M85.8473 381.44C86.6333 384.533 87.0262 386.847 87.0262 388.382C87.0262 390.25 86.8152 392.975 86.3931 396.558C84.9234 396.558 71.7151 396.558 46.7683 396.558C45.7385 391.54 46.333 388.831 48.5515 388.43C50.77 388.03 52.613 387.669 54.0804 387.347L72.4976 375.244C72.852 375.011 73.2674 375.245 73.4253 375.768C73.428 375.777 73.4307 375.786 73.4332 375.795L74.617 380.028C76.6708 381.44 78.3397 382.147 79.6238 382.147C80.667 382.147 82.1077 381.526 83.946 380.283L83.9459 380.283C84.6514 379.807 85.4854 380.263 85.8088 381.303C85.8227 381.348 85.8355 381.394 85.8473 381.44Z" fill="#E4E4E4"/>
<path fill-rule="evenodd" clip-rule="evenodd" d="M131.772 370.909C133.033 372.723 133.787 374.199 134.031 375.336C134.329 376.719 134.557 378.866 134.715 381.776C133.278 382.667 120.359 390.677 95.9587 405.807C94.1516 402.714 94.3011 400.347 96.4073 398.705C98.5134 397.064 100.258 395.678 101.642 394.549L117.727 374.415C118.036 374.028 118.48 373.95 118.718 374.241C118.722 374.246 118.726 374.251 118.73 374.256L120.562 376.674C122.796 376.474 124.541 375.985 125.797 375.207C126.817 374.574 128.128 373.24 129.728 371.205L129.728 371.205C130.341 370.424 131.23 370.257 131.712 370.831C131.733 370.856 131.753 370.882 131.772 370.909Z" fill="#E4E4E4"/>
<path d="M51.5477 396.558H83.8647C85.2227 396.558 86.3236 398.181 86.3236 400.182C86.3236 402.184 85.2227 403.807 83.8647 403.807H51.5477C50.1896 403.807 49.0887 402.184 49.0887 400.182C49.0887 398.181 50.1896 396.558 51.5477 396.558Z" fill="#2F3676"/>
<path d="M102.243 404.342L130.561 381.386C131.751 380.421 133.246 381.061 133.9 382.815C134.555 384.57 134.121 386.773 132.931 387.738L104.613 410.694C103.423 411.658 101.928 411.018 101.274 409.264C100.619 407.51 101.053 405.306 102.243 404.342Z" fill="#2F3676"/>
<path fill-rule="evenodd" clip-rule="evenodd" d="M98.9638 229.778L72.7705 237.463C65.8673 236.53 60.0523 236.466 55.3252 237.273C54.1872 237.786 52.7607 239.171 57.2431 240.608C61.7255 242.046 66.443 243.756 66.9614 245.456C67.4798 247.156 64.6645 247.829 65.7777 250.287C66.5198 251.925 70.6572 250.191 78.1898 245.085L103.623 245.057L98.9638 229.778ZM194.993 268.413L178.597 261.986C186.634 297.272 190.992 316.031 191.672 318.264C193.2 323.289 188.922 328.327 187.044 331.201C192.241 335.611 192.237 326.898 198.785 332.575C204.762 337.757 209.117 344.582 216.513 343.195C217.423 343.025 218.511 341.459 216.296 339.021C210.777 332.948 202.902 323.025 201.923 320.397C200.589 316.815 198.279 299.486 194.993 268.413Z" fill="#B28B67"/>
<path fill-rule="evenodd" clip-rule="evenodd" d="M201.021 182.002L192.829 176.412C157.449 184.056 136.635 222.962 94.1335 227.404L101.584 242.16C169.24 269.043 195.442 222.005 201.021 182.002Z" fill="#961396"/>
<path fill-rule="evenodd" clip-rule="evenodd" d="M191.938 278.441C165.151 263.517 145.447 252.54 132.826 245.508C130.125 244.003 131.306 239.763 132.036 237.698C140.455 213.864 162.264 195.266 167.834 157.765L185.345 164.164C195.54 198.328 195.607 233.435 191.938 278.441Z" fill="#DDE3E9"/>
<path fill-rule="evenodd" clip-rule="evenodd" d="M207.859 193.648C210.43 194.783 212.83 194.477 215.059 192.731C224.669 185.205 224.604 176.665 219.002 169.277C213.401 161.889 206.41 161.897 196.408 153.686C195.864 153.24 195.353 152.871 194.877 152.579L189.744 148.783C158.068 193.927 142.584 228.684 143.292 253.054L187.146 289.053C187.61 298.244 188.3 306.223 189.216 312.991L201.166 322.8C215.105 281.362 217.336 238.312 207.859 193.648Z" fill="#961396"/>
<g filter="url(#filter1_f)">
<g style="mix-blend-mode:lighten" filter="url(#filter2_d)">
<line y1="-1.5" x2="70" y2="-1.5" transform="matrix(0.256983 0.966416 -0.947888 0.318605 27.0006 182)" stroke="black" stroke-width="3"/>
</g>
<g filter="url(#filter3_d)">
<line x1="45.6047" y1="250.562" x2="99.9431" y2="248.501" stroke="black" stroke-width="3"/>
</g>
</g>
<defs>
<filter id="filter0_d" x="24" y="0" width="593" height="766" filterUnits="userSpaceOnUse" color-interpolation-filters="sRGB">
<feFlood flood-opacity="0" result="BackgroundImageFix"/>
<feColorMatrix in="SourceAlpha" type="matrix" values="0 0 0 0 0 0 0 0 0 0 0 0 0 0 0 0 0 0 127 0"/>
<feOffset dy="4"/>
<feGaussianBlur stdDeviation="2"/>
<feColorMatrix type="matrix" values="0 0 0 0 0 0 0 0 0 0 0 0 0 0 0 0 0 0 0.25 0"/>
<feBlend mode="normal" in2="BackgroundImageFix" result="effect1_dropShadow"/>
<feBlend mode="normal" in="SourceGraphic" in2="effect1_dropShadow" result="shape"/>
</filter>
<filter id="filter1_f" x="23.0006" y="177.044" width="80.9994" height="79.0168" filterUnits="userSpaceOnUse" color-interpolation-filters="sRGB">
<feFlood flood-opacity="0" result="BackgroundImageFix"/>
<feBlend mode="normal" in="SourceGraphic" in2="BackgroundImageFix" result="shape"/>
<feGaussianBlur stdDeviation="2" result="effect1_foregroundBlur"/>
</filter>
<filter id="filter2_d" x="27.0006" y="172.044" width="31.8325" height="77.6049" filterUnits="userSpaceOnUse" color-interpolation-filters="sRGB">
<feFlood flood-opacity="0" result="BackgroundImageFix"/>
<feColorMatrix in="SourceAlpha" type="matrix" values="0 0 0 0 0 0 0 0 0 0 0 0 0 0 0 0 0 0 127 0"/>
<feOffset dx="7" dy="-5"/>
<feGaussianBlur stdDeviation="2"/>
<feColorMatrix type="matrix" values="0 0 0 0 0 0 0 0 0 0 0 0 0 0 0 0 0 0 0.3 0"/>
<feBlend mode="normal" in2="BackgroundImageFix" result="effect1_dropShadow"/>
<feBlend mode="normal" in="SourceGraphic" in2="effect1_dropShadow" result="shape"/>
</filter>
<filter id="filter3_d" x="41.5479" y="247.002" width="62.4521" height="13.0586" filterUnits="userSpaceOnUse" color-interpolation-filters="sRGB">
<feFlood flood-opacity="0" result="BackgroundImageFix"/>
<feColorMatrix in="SourceAlpha" type="matrix" values="0 0 0 0 0 0 0 0 0 0 0 0 0 0 0 0 0 0 127 0"/>
<feOffset dy="4"/>
<feGaussianBlur stdDeviation="2"/>
<feColorMatrix type="matrix" values="0 0 0 0 0 0 0 0 0 0 0 0 0 0 0 0 0 0 0.25 0"/>
<feBlend mode="normal" in2="BackgroundImageFix" result="effect1_dropShadow"/>
<feBlend mode="normal" in="SourceGraphic" in2="effect1_dropShadow" result="shape"/>
</filter>
</defs>
</svg>
