<svg width="256" height="256" viewBox="0 0 256 256" fill="none" xmlns="http://www.w3.org/2000/svg">
<g filter="url(#filter0_d)">
<path d="M74.6667 74.6665H53.3333C47.6754 74.6665 42.2492 76.9141 38.2484 80.9149C34.2476 84.9157 32 90.3419 32 95.9998V181.333H53.3333V138.667H74.6667V181.333H96V95.9998C96 90.3419 93.7524 84.9157 89.7516 80.9149C85.7508 76.9141 80.3246 74.6665 74.6667 74.6665ZM74.6667 117.333H53.3333V95.9998H74.6667V117.333ZM149.333 74.6665H106.667V181.333H128V138.667H149.333C154.991 138.667 160.417 136.419 164.418 132.418C168.419 128.417 170.667 122.991 170.667 117.333V95.9998C170.667 90.3419 168.419 84.9157 164.418 80.9149C160.417 76.9141 154.991 74.6665 149.333 74.6665ZM149.333 117.333H128V95.9998H149.333V117.333ZM213.333 95.9998V160H224V181.333H181.333V160H192V95.9998H181.333V74.6665H224V95.9998H213.333Z" fill="black"/>
</g>
<defs>
<filter id="filter0_d" x="-2" y="0" width="264" height="270" filterUnits="userSpaceOnUse" color-interpolation-filters="sRGB">
<feFlood flood-opacity="0" result="BackgroundImageFix"/>
<feColorMatrix in="SourceAlpha" type="matrix" values="0 0 0 0 0 0 0 0 0 0 0 0 0 0 0 0 0 0 127 0"/>
<feOffset dx="2" dy="10"/>
<feGaussianBlur stdDeviation="2"/>
<feColorMatrix type="matrix" values="0 0 0 0 0 0 0 0 0 0 0 0 0 0 0 0 0 0 0.25 0"/>
<feBlend mode="normal" in2="BackgroundImageFix" result="effect1_dropShadow"/>
<feBlend mode="normal" in="SourceGraphic" in2="effect1_dropShadow" result="shape"/>
</filter>
</defs>
</svg>
