<svg width="521" height="781" viewBox="0 0 521 781" fill="none" xmlns="http://www.w3.org/2000/svg">
<path fill-rule="evenodd" clip-rule="evenodd" d="M316.086 270.283C361.279 276.603 456.994 316.315 421.552 346.62C354.09 404.306 217.079 332.532 162.79 401.362C124.873 449.434 262.602 471.425 280.258 525.758C293.225 565.663 277.03 619.146 243.545 649.875C213.058 677.853 163.071 670.838 122.045 670.948C83.99 671.05 49.3474 657.185 12.4508 650.496C-24.028 643.882 -91.3214 666.283 -96.2037 631.379C-105.136 567.518 -29.2233 512.897 -15.8357 448.268C-12.5378 432.348 -48.5975 432.691 -51.834 417.186C-55.1082 401.501 -34.1748 387.738 -31.8517 371.54C-29.4897 355.071 -35.8155 339.496 -38.3798 323.376C-43.3108 292.378 -59.8046 262.984 -54.1435 231.405C-47.8391 196.237 -41.8851 135.362 -4.48415 134.298C43.2923 132.939 61.207 194.064 91.0923 227.273C105.93 243.761 114.585 263.999 128.03 281.551C135.727 291.6 140.242 309.996 153.832 309.182C209.309 305.858 261.878 262.703 316.086 270.283Z" fill="#961396" fill-opacity="0.15"/>
</svg>
