<svg width="264" height="270" viewBox="0 0 264 270" fill="none" xmlns="http://www.w3.org/2000/svg">
<g filter="url(#filter0_d)">
<path d="M2 222.991C2 241.223 16.779 256 35.009 256H224.99C243.223 256 258 241.221 258 222.991V33.01C258 14.777 243.221 0 224.991 0H35.01C16.777 0 2 14.779 2 33.009V222.99V222.991Z" fill="#563D7C"/>
<path d="M108.158 113.238V76.985H140.069C143.109 76.985 146.039 77.238 148.861 77.745C151.683 78.251 154.18 79.155 156.351 80.458C158.521 81.761 160.258 83.57 161.561 85.885C162.863 88.201 163.515 91.168 163.515 94.785C163.515 101.298 161.561 106.002 157.653 108.896C153.746 111.791 148.753 113.238 142.674 113.238H108.158ZM74.075 50.5V205.5H149.187C156.134 205.5 162.9 204.632 169.485 202.895C176.07 201.158 181.931 198.481 187.069 194.863C192.206 191.245 196.295 186.577 199.334 180.861C202.374 175.144 203.893 168.378 203.893 160.563C203.893 150.866 201.541 142.581 196.838 135.707C192.134 128.832 185.006 124.02 175.454 121.27C182.401 117.942 187.648 113.672 191.194 108.462C194.739 103.252 196.512 96.74 196.512 88.924C196.512 81.688 195.318 75.61 192.93 70.689C190.542 65.769 187.177 61.825 182.835 58.858C178.494 55.891 173.284 53.756 167.205 52.454C161.127 51.151 154.397 50.5 147.016 50.5H74.075ZM108.158 179.015V136.466H145.279C152.66 136.466 158.594 138.166 163.081 141.568C167.567 144.969 169.811 150.649 169.811 158.609C169.811 162.662 169.123 165.99 167.748 168.595C166.373 171.2 164.528 173.263 162.212 174.782C159.897 176.302 157.219 177.387 154.18 178.039C151.14 178.689 147.957 179.015 144.628 179.015H108.158Z" fill="white"/>
</g>
<defs>
<filter id="filter0_d" x="0" y="0" width="264" height="270" filterUnits="userSpaceOnUse" color-interpolation-filters="sRGB">
<feFlood flood-opacity="0" result="BackgroundImageFix"/>
<feColorMatrix in="SourceAlpha" type="matrix" values="0 0 0 0 0 0 0 0 0 0 0 0 0 0 0 0 0 0 127 0"/>
<feOffset dx="2" dy="10"/>
<feGaussianBlur stdDeviation="2"/>
<feColorMatrix type="matrix" values="0 0 0 0 0 0 0 0 0 0 0 0 0 0 0 0 0 0 0.25 0"/>
<feBlend mode="normal" in2="BackgroundImageFix" result="effect1_dropShadow"/>
<feBlend mode="normal" in="SourceGraphic" in2="effect1_dropShadow" result="shape"/>
</filter>
</defs>
</svg>
