<svg width="30" height="39" viewBox="0 0 30 39" fill="none" xmlns="http://www.w3.org/2000/svg">
<path d="M14.9924 0.847656C7.13197 0.847656 0.492416 9.54966 0.492416 19.8477C0.492416 30.1457 7.13197 38.8477 14.9924 38.8477C22.8529 38.8477 29.4924 30.1457 29.4924 19.8477C29.4924 9.54966 22.8529 0.847656 14.9924 0.847656ZM14.9924 25.5477C16.4308 25.5477 17.6749 25.0442 18.3173 24.2025L20.3676 26.891C18.7349 29.0285 16.2989 29.3477 14.9924 29.3477C10.9948 29.3477 7.74242 25.086 7.74242 19.8477C7.74242 14.6094 10.9948 10.3477 14.9924 10.3477C16.2989 10.3477 18.7363 10.6669 20.3676 12.8044L18.3173 15.491C17.6764 14.6493 16.4323 14.1477 14.9924 14.1477C12.6347 14.1477 10.6424 16.7583 10.6424 19.8477C10.6424 22.9371 12.6347 25.5477 14.9924 25.5477Z" fill="white"/>
</svg>
