<svg width="190" height="270" viewBox="0 0 190 270" fill="none" xmlns="http://www.w3.org/2000/svg">
<g clip-path="url(#clip0)" filter="url(#filter0_d)">
<path d="M92.6644 255.353L18.7846 234.843L2.32049 50.1831H183.229L166.748 234.815L92.6644 255.353Z" fill="#264DE4"/>
<path d="M152.639 223.058L166.722 65.2812H92.775V239.654L152.639 223.058Z" fill="#2965F1"/>
<path d="M40.0638 133.77L42.0934 156.417H92.775V133.77H40.0638Z" fill="#EBEBEB"/>
<path d="M35.9848 87.9302L38.0435 110.578H92.775V87.9302H35.9848Z" fill="#EBEBEB"/>
<path d="M92.775 192.589L92.6757 192.615L67.453 185.804L65.8404 167.742H43.1053L46.278 203.302L92.6708 216.18L92.775 216.152V192.589Z" fill="#EBEBEB"/>
<path d="M44.8966 0H72.3262V11.4711H56.3677V22.9421H72.3276V34.4125H44.8966V0Z" fill="black"/>
<path d="M77.8128 0H105.243V9.97478H89.2839V11.9696H105.243V34.9117H77.8135V24.437H93.7728V22.4422H77.8121V0H77.8128Z" fill="black"/>
<path d="M110.73 0H138.16V9.97478H122.201V11.9696H138.16V34.9117H110.73V24.437H126.689V22.4422H110.73V0H110.73Z" fill="black"/>
<path d="M145.342 133.77L149.43 87.9302H92.697V110.578H124.61L122.549 133.77H92.697V156.418H120.585L117.956 185.79L92.6963 192.608V216.17L139.126 203.302L139.466 199.476L144.789 139.851L145.342 133.77Z" fill="white"/>
</g>
<defs>
<filter id="filter0_d" x="0" y="0" width="189.55" height="270" filterUnits="userSpaceOnUse" color-interpolation-filters="sRGB">
<feFlood flood-opacity="0" result="BackgroundImageFix"/>
<feColorMatrix in="SourceAlpha" type="matrix" values="0 0 0 0 0 0 0 0 0 0 0 0 0 0 0 0 0 0 127 0"/>
<feOffset dx="2" dy="10"/>
<feGaussianBlur stdDeviation="2"/>
<feColorMatrix type="matrix" values="0 0 0 0 0 0 0 0 0 0 0 0 0 0 0 0 0 0 0.25 0"/>
<feBlend mode="normal" in2="BackgroundImageFix" result="effect1_dropShadow"/>
<feBlend mode="normal" in="SourceGraphic" in2="effect1_dropShadow" result="shape"/>
</filter>
<clipPath id="clip0">
<rect width="181.55" height="256" fill="white" transform="translate(2)"/>
</clipPath>
</defs>
</svg>
