<svg width="230" height="256" viewBox="0 0 230 256" fill="none" xmlns="http://www.w3.org/2000/svg">
<g clip-path="url(#clip0)">
<path d="M206.96 0C219.532 0 229.749 10.0891 229.953 22.6151L229.955 22.9951V232.505C229.955 245.077 219.864 255.294 207.34 255.498L206.96 255.501H22.9997C10.4278 255.501 0.211159 245.409 0.00725711 232.886L0.00456238 232.505V22.9951C0.00456238 10.4205 10.0964 0.206596 22.6197 0.00269474L22.9997 0H206.96ZM206.96 12.7748H22.9997C17.4539 12.7748 12.9231 17.2194 12.783 22.7319L12.7794 22.9951V232.505C12.7794 238.051 17.2239 242.582 22.7365 242.722L22.9997 242.726H206.96C212.509 242.726 217.037 238.282 217.177 232.77L217.181 232.505V22.9951C217.181 17.3613 212.598 12.7748 206.96 12.7748V12.7748ZM57.4923 166.077L86.2361 191.626L57.4923 217.177V166.076V166.077ZM83.042 38.3254V110.859C95.798 106.707 113.629 102.2 130.949 102.2C146.742 102.2 156.195 108.409 161.344 113.618C172.221 124.622 172.479 138.607 172.465 140.473V140.525L172.468 217.176H146.918V140.877C146.792 134.914 143.918 127.75 130.949 127.75C105.23 127.75 76.4129 140.557 75.5578 140.939L75.5398 140.947L57.4923 149.123V38.3245H83.042V38.3254ZM172.468 38.3254C170.743 52.8375 164.86 66.7495 153.305 79.8442H127.755C137.796 66.6696 144.101 52.8061 146.918 38.3254H172.468Z" fill="#430098"/>
</g>
<defs>
<clipPath id="clip0">
<rect width="229.96" height="256" fill="white"/>
</clipPath>
</defs>
</svg>
