<svg width="368" height="252" viewBox="0 0 368 252" fill="none" xmlns="http://www.w3.org/2000/svg">
<g filter="url(#filter0_d)">
<path d="M217.731 82.3531C209.838 82.3531 203.961 88.4343 203.961 103.071C203.961 114.098 207.835 121.755 217.305 121.755C225.333 121.755 230.786 114.33 230.786 102.613C230.786 89.335 225.907 82.3531 217.731 82.3531ZM201.952 185.701C200.083 189.297 198.222 193.121 198.222 197.629C198.222 206.629 205.535 209.337 215.581 209.337C223.9 209.337 235.235 208.421 235.235 196.281C235.235 189.064 229.782 188.62 222.892 187.942L201.952 185.701ZM244.415 83.0325C246.993 88.2108 249.723 95.4184 249.723 105.773C249.723 130.762 237.242 145.394 219.169 145.394C214.574 145.394 210.414 144.495 207.835 143.371L203.098 155.299L217.156 156.649C241.977 159.132 256.604 160.26 256.604 190.191C256.604 216.087 242.119 230.712 217.156 230.712C191.191 230.712 181.292 220.356 181.292 202.572C181.292 192.441 184.161 187.048 189.183 179.606C184.447 176.466 182.871 170.841 182.871 164.757C182.871 159.8 184.447 155.301 187.034 151.019C189.614 146.748 192.482 142.466 195.926 137.513C188.898 132.109 183.587 120.403 183.587 103.739C183.587 77.8541 194.492 60.0752 216.437 60.0752C222.607 60.0752 226.339 60.9648 229.638 62.3258H257.616V81.4546L244.415 83.0325Z" fill="#2F2707"/>
<path d="M282.854 42.1215C274.675 42.1215 269.942 34.6859 269.942 21.8485C269.942 9.0288 274.674 2.04248 282.854 2.04248C291.174 2.04248 295.909 9.0288 295.909 21.8485C295.909 34.6859 291.176 42.1215 282.854 42.1215ZM264.345 177.415V159.639L271.663 158.067C273.673 157.614 273.958 156.941 273.958 153.557V87.3677C273.958 84.898 273.529 83.3136 272.089 82.6452L264.345 78.3632L265.921 60.1328H295.62V153.557C295.62 157.165 295.759 157.614 297.917 158.07L305.233 159.641V177.415H264.345Z" fill="#2F2707"/>
<path d="M361.965 168.687C355.794 173.412 346.756 177.69 338.576 177.69C321.505 177.69 315.052 166.895 315.052 141.441V82.4636C315.052 81.1137 315.052 80.2131 313.9 80.2131H303.86V60.1703C316.488 57.913 321.505 48.0078 323.083 23.4683H336.713V55.4456C336.713 57.0168 336.713 57.6962 337.863 57.6962H358.088V80.2086H336.713V134.012C336.713 147.295 338.724 152.469 346.467 152.469C350.489 152.469 354.645 150.897 358.087 148.87L361.965 168.685" fill="#2F2707"/>
<path d="M149.403 109.608L83.8087 6.67656C82.9103 5.26639 81.8438 4.14775 80.67 3.38454C79.4961 2.62134 78.238 2.22852 76.9673 2.22852C75.6967 2.22852 74.4386 2.62134 73.2647 3.38454C72.0909 4.14775 71.0244 5.26639 70.126 6.67656L56.5055 28.0538L73.7839 55.167C75.8149 54.0831 77.9988 53.9134 80.0881 54.6773C82.1774 55.4411 84.0886 57.1079 85.6052 59.4889C87.13 61.8849 88.1945 64.9057 88.6773 68.206C89.16 71.5064 89.0415 74.9534 88.3352 78.1531L104.985 104.286C109.014 102.108 113.663 103.518 116.879 108.575C117.949 110.252 118.797 112.243 119.376 114.435C119.955 116.627 120.253 118.976 120.253 121.349C120.253 123.722 119.955 126.071 119.376 128.263C118.797 130.455 117.949 132.446 116.879 134.123C114.998 137.079 112.522 138.92 109.873 139.332C107.224 139.745 104.566 138.705 102.35 136.388C100.135 134.071 98.5002 130.621 97.7235 126.625C96.9468 122.63 97.0766 118.335 98.0906 114.472L82.5621 90.1031L82.5607 154.235C83.6864 155.108 84.7145 156.262 85.6052 157.652C86.6745 159.329 87.5227 161.321 88.1015 163.513C88.6802 165.706 88.9781 168.055 88.9781 170.428C88.9781 172.801 88.6802 175.151 88.1015 177.343C87.5227 179.535 86.6745 181.527 85.6052 183.205C81.1068 190.264 73.8164 190.264 69.3251 183.205C67.9833 181.1 66.9936 178.509 66.444 175.66C65.8944 172.81 65.8019 169.792 66.1748 166.874C66.5477 163.955 67.3743 161.226 68.5813 158.929C69.7882 156.633 71.3381 154.84 73.093 153.71V88.9811C71.6812 88.0764 70.3998 86.7353 69.3251 85.0376C65.9182 79.6977 65.0989 71.8528 66.8446 65.2869L49.8129 38.5543L4.83777 109.13C3.93904 110.54 3.22614 112.215 2.73975 114.057C2.25336 115.9 2.00302 117.875 2.00302 119.87C2.00302 121.864 2.25336 123.839 2.73975 125.682C3.22614 127.525 3.93904 129.199 4.83777 130.609L70.432 233.543C72.2466 236.39 74.7075 237.989 77.2734 237.989C79.8392 237.989 82.3001 236.39 84.1147 233.543L149.403 131.089C151.217 128.24 152.237 124.377 152.237 120.349C152.237 116.321 151.217 112.457 149.403 109.608Z" fill="#DE4C36"/>
</g>
<defs>
<filter id="filter0_d" x="0" y="0" width="369" height="253" filterUnits="userSpaceOnUse" color-interpolation-filters="sRGB">
<feFlood flood-opacity="0" result="BackgroundImageFix"/>
<feColorMatrix in="SourceAlpha" type="matrix" values="0 0 0 0 0 0 0 0 0 0 0 0 0 0 0 0 0 0 127 0"/>
<feOffset dx="2" dy="10"/>
<feGaussianBlur stdDeviation="2"/>
<feColorMatrix type="matrix" values="0 0 0 0 0 0 0 0 0 0 0 0 0 0 0 0 0 0 0.25 0"/>
<feBlend mode="normal" in2="BackgroundImageFix" result="effect1_dropShadow"/>
<feBlend mode="normal" in="SourceGraphic" in2="effect1_dropShadow" result="shape"/>
</filter>
</defs>
</svg>
