<svg width="98" height="83" viewBox="0 0 98 83" fill="none" xmlns="http://www.w3.org/2000/svg">
<path d="M44 82C67.6895 82 87 63.9245 87 41.5C87 19.0755 67.6895 1 44 1C20.3105 1 1 19.0755 1 41.5C1 63.9245 20.3105 82 44 82Z" fill="white" stroke="black" stroke-width="2"/>
<path d="M50.8047 47.7578C49.3828 48.3359 48.0859 48.7266 46.9141 48.9297C45.7422 49.1328 44.6875 49.2344 43.75 49.2344C43 49.2344 42.3516 49.1875 41.8047 49.0938C41.2578 49.0156 40.7891 48.9141 40.3984 48.7891C39.9453 48.6484 39.5547 48.4922 39.2266 48.3203C38.5391 47.9297 37.9375 47.4219 37.4219 46.7969C36.9062 46.1719 36.4375 45.5 36.0156 44.7812C35.6094 44.0625 35.2422 43.3203 34.9141 42.5547C34.5859 41.7891 34.2656 41.0703 33.9531 40.3984L33.3672 39.1562C31.7891 39.6094 30.3125 40.1328 28.9375 40.7266C27.5781 41.3047 26.3672 41.8828 25.3047 42.4609C24.2422 43.0234 23.3438 43.5469 22.6094 44.0312C21.8906 44.5 21.3828 44.8438 21.0859 45.0625C20.5078 45.7031 19.8594 46.2734 19.1406 46.7734C18.4219 47.2734 17.6172 47.7031 16.7266 48.0625C15.8359 48.4062 14.8438 48.6719 13.75 48.8594C12.6562 49.0469 11.4531 49.1406 10.1406 49.1406L9.90625 48.1328C11.4219 47.8828 12.7266 47.3984 13.8203 46.6797C14.9297 45.9609 15.8828 45.0781 16.6797 44.0312C17.4766 42.9688 18.1562 41.7812 18.7188 40.4688C19.2812 39.1406 19.7812 37.7422 20.2188 36.2734C20.4688 35.4297 20.7969 34.5391 21.2031 33.6016C21.625 32.6641 22.125 31.7578 22.7031 30.8828C23.2969 29.9922 23.9688 29.1641 24.7188 28.3984C25.4844 27.6172 26.3516 26.9609 27.3203 26.4297C27.0547 25.9297 26.7891 25.4219 26.5234 24.9062C26.2734 24.375 26.0312 23.8438 25.7969 23.3125C25.4688 22.6875 25.1406 22 24.8125 21.25C24.4844 20.4844 24.0938 19.7812 23.6406 19.1406C23.2031 18.4844 22.6797 17.9375 22.0703 17.5C21.4766 17.0625 20.7344 16.8438 19.8438 16.8438C19.2188 16.8438 18.6016 16.9141 17.9922 17.0547C17.3984 17.1953 16.8281 17.3672 16.2812 17.5703L15.9531 16.6094C17.3125 16.1562 18.6875 15.7734 20.0781 15.4609C21.4844 15.1328 22.875 14.9688 24.25 14.9688C24.9062 14.9688 25.5547 15.0156 26.1953 15.1094C26.8359 15.1875 27.4531 15.3359 28.0469 15.5547C28.5625 15.7422 29.0625 16.0547 29.5469 16.4922C30.0312 16.9141 30.4922 17.4219 30.9297 18.0156C31.3672 18.5938 31.7734 19.2188 32.1484 19.8906C32.5391 20.5625 32.8984 21.2344 33.2266 21.9062C33.5703 22.5781 33.875 23.2188 34.1406 23.8281C34.4219 24.4219 34.6641 24.9375 34.8672 25.375C36.2422 28.3281 37.6094 31.2891 38.9688 34.2578C40.3281 37.2109 41.7891 40.125 43.3516 43C43.6328 43.5156 43.9297 44.0234 44.2422 44.5234C44.5703 45.0234 44.9297 45.4688 45.3203 45.8594C45.7266 46.25 46.1719 46.5625 46.6562 46.7969C47.1406 47.0312 47.6875 47.1406 48.2969 47.125C48.5156 47.125 48.8125 47.1016 49.1875 47.0547C49.5781 47.0078 50 46.8906 50.4531 46.7031L50.8047 47.7578ZM28.6328 29.125C28.2266 29.7812 27.8516 30.4609 27.5078 31.1641C27.1797 31.8672 26.875 32.5859 26.5938 33.3203C26.3125 34.0391 26.0547 34.7578 25.8203 35.4766C25.5859 36.1953 25.3516 36.8828 25.1172 37.5391C24.8828 38.2578 24.625 38.9609 24.3438 39.6484C24.0781 40.3203 23.7734 40.9766 23.4297 41.6172C24.6016 40.9297 25.9766 40.2109 27.5547 39.4609C29.1328 38.7109 30.8203 38.0703 32.6172 37.5391L28.6328 29.125Z" fill="black"/>
<path d="M65.5781 63H49.875V62.1328C50.7188 62.1328 51.4062 62.0469 51.9375 61.875C52.4844 61.6875 52.9062 61.4453 53.2031 61.1484C53.5156 60.8516 53.7266 60.5078 53.8359 60.1172C53.9453 59.7266 54 59.3125 54 58.875V33.3281C54 33.0156 53.9375 32.6797 53.8125 32.3203C53.7031 31.9609 53.4922 31.6328 53.1797 31.3359C52.8828 31.0234 52.4688 30.7656 51.9375 30.5625C51.4062 30.3594 50.7188 30.2578 49.875 30.2578V29.3906H65.5781V30.2578C64.7188 30.2578 64.0156 30.3516 63.4688 30.5391C62.9375 30.7109 62.5156 30.9531 62.2031 31.2656C61.9062 31.5625 61.7031 31.9062 61.5938 32.2969C61.4844 32.6875 61.4297 33.1016 61.4297 33.5391V58.875C61.4297 59.1875 61.4766 59.5312 61.5703 59.9062C61.6797 60.2812 61.875 60.6328 62.1562 60.9609C62.4531 61.2891 62.875 61.5703 63.4219 61.8047C63.9688 62.0234 64.6875 62.1328 65.5781 62.1328V63Z" fill="black"/>
</svg>
