<svg width="111" height="48" viewBox="0 0 111 48" fill="none" xmlns="http://www.w3.org/2000/svg">
<path d="M63.2738 15.3627V17.3227H58.2758V19.5207H62.6998V21.4807H58.2758V23.7067H63.4698V25.6667H56.2458V15.3627H63.2738ZM67.628 21.6067V23.3147H64.996V21.6067H67.628ZM77.5913 19.2407C78.1886 19.2407 78.6646 19.4087 79.0193 19.7447C79.3833 20.0807 79.5746 20.524 79.5933 21.0747V25.6667H77.6473V21.8867C77.6286 21.5787 77.5773 21.35 77.4933 21.2007C77.4093 21.042 77.246 20.9533 77.0033 20.9347C76.546 20.9347 76.1866 21.1587 75.9253 21.6067C75.6733 22.0453 75.5473 22.5633 75.5473 23.1607V25.6667H73.5873V21.8867C73.5686 21.5787 73.5126 21.35 73.4193 21.2007C73.326 21.042 73.1533 20.9533 72.9013 20.9347C72.4626 20.9347 72.1173 21.1587 71.8653 21.6067C71.6133 22.0453 71.4873 22.554 71.4873 23.1327V25.6667H69.5273V19.5487H71.3053L71.4453 20.5147C71.94 19.6653 72.6773 19.2407 73.6573 19.2407C74.152 19.2407 74.558 19.3433 74.8753 19.5487C75.202 19.7447 75.426 20.0387 75.5473 20.4307C75.8086 20.0667 76.1166 19.7773 76.4713 19.5627C76.8353 19.348 77.2086 19.2407 77.5913 19.2407ZM88.1932 19.5487V25.6667H86.2332V24.9107C85.6452 25.5267 84.9639 25.8347 84.1892 25.8347C83.2839 25.8347 82.5466 25.564 81.9772 25.0227C81.4172 24.4813 81.1372 23.6787 81.1372 22.6147C81.1372 21.9427 81.2726 21.3547 81.5432 20.8507C81.8232 20.3373 82.1919 19.9407 82.6492 19.6607C83.1066 19.3807 83.5966 19.2407 84.1192 19.2407C84.6606 19.2407 85.0899 19.3247 85.4072 19.4927C85.7246 19.6513 86.0046 19.88 86.2472 20.1787L86.3732 19.5487H88.1932ZM84.7492 24.2387C85.4306 24.2387 85.9252 23.9307 86.2332 23.3147V21.8167C86.1212 21.518 85.9252 21.28 85.6452 21.1027C85.3746 20.9253 85.0526 20.8367 84.6792 20.8367C84.2499 20.8367 83.8812 20.9953 83.5732 21.3127C83.2746 21.63 83.1252 22.0313 83.1252 22.5167C83.1252 22.834 83.1999 23.128 83.3492 23.3987C83.4986 23.66 83.6946 23.8653 83.9372 24.0147C84.1892 24.164 84.4599 24.2387 84.7492 24.2387ZM92.1729 19.5487V25.6667H90.2129V19.5487H92.1729ZM90.1709 17.3787C90.1709 17.0987 90.2782 16.8653 90.4929 16.6787C90.7169 16.4827 90.9689 16.3847 91.2489 16.3847C91.5195 16.3847 91.7622 16.4827 91.9769 16.6787C92.1915 16.8653 92.2989 17.0987 92.2989 17.3787C92.2989 17.6587 92.1915 17.892 91.9769 18.0787C91.7622 18.2653 91.5195 18.3587 91.2489 18.3587C90.9689 18.3587 90.7169 18.2653 90.4929 18.0787C90.2782 17.892 90.1709 17.6587 90.1709 17.3787ZM96.1514 14.6207V25.6667H94.1914V14.6207H96.1514Z" fill="black"/>
<path d="M42.9261 0H1.47386C1.08301 0.000639583 0.708307 0.217759 0.43199 0.603708C0.155672 0.989656 0.000312831 1.5129 7.62939e-06 2.05861V6.19998C7.62939e-06 6.39078 0.1482 6.60977 0.269291 6.69833L22.0576 24.0745C22.1134 24.1191 22.1767 24.1421 22.2409 24.1413C22.3066 24.1416 22.3712 24.1171 22.4278 24.0705L43.5575 6.71523C43.6763 6.62265 43.9912 6.3779 44.1094 6.26519C44.2524 6.12913 44.4 6.00595 44.4 5.76201V2.0578C44.3995 1.51224 44.2441 0.989198 43.9678 0.603424C43.6915 0.217649 43.3169 0.000639212 42.9261 0V0Z" fill="black"/>
<path d="M44.2161 12.4445C44.1593 12.3994 44.0951 12.3759 44.0298 12.3764C43.9645 12.377 43.9005 12.4016 43.8441 12.4478L31.8867 22.2713C31.8391 22.3101 31.7983 22.3633 31.7674 22.4271C31.7365 22.4909 31.7163 22.5636 31.7082 22.6398C31.7002 22.7159 31.7046 22.7937 31.721 22.8672C31.7374 22.9407 31.7655 23.0081 31.8031 23.0644L43.7623 41.065C43.7965 41.117 43.8382 41.1584 43.8845 41.1867C43.9309 41.215 43.9809 41.2295 44.0315 41.2292C44.1292 41.229 44.2228 41.1748 44.2919 41.0783C44.361 40.9819 44.3999 40.8511 44.4 40.7148V12.8914C44.4003 12.8009 44.3834 12.7119 44.3511 12.6334C44.3188 12.555 44.2722 12.4898 44.2161 12.4445Z" fill="black"/>
<path d="M28.4403 25.5687C28.3836 25.4824 28.3073 25.4259 28.2243 25.4086C28.1413 25.3913 28.0566 25.4143 27.9842 25.4737L23.1913 29.4114C22.9105 29.6379 22.5923 29.7586 22.268 29.7616C21.9437 29.7645 21.6244 29.6497 21.3415 29.4283L17.1235 26.0638C17.0554 26.0097 16.9768 25.9872 16.8989 25.9997C16.821 26.0121 16.748 26.0588 16.6905 26.1331L0.673049 46.8769C0.631058 46.9317 0.598818 46.9994 0.578898 47.0747C0.558978 47.15 0.551929 47.2307 0.558314 47.3105C0.564699 47.3903 0.58434 47.4669 0.615673 47.5341C0.647005 47.6014 0.689162 47.6576 0.738784 47.6981C0.987885 47.9026 1.22834 48 1.47283 48H42.5013C42.5731 48.0002 42.6433 47.9709 42.7033 47.9158C42.7633 47.8607 42.8103 47.7822 42.8386 47.69C42.8674 47.5984 42.8763 47.497 42.8642 47.3984C42.8521 47.2998 42.8195 47.2083 42.7706 47.1353L28.4403 25.5687Z" fill="black"/>
<path d="M13.1666 23.6796C13.209 23.6248 13.2417 23.5569 13.2618 23.4813C13.282 23.4057 13.2891 23.3245 13.2826 23.2443C13.2762 23.1642 13.2563 23.0872 13.2246 23.0198C13.193 22.9523 13.1504 22.8962 13.1003 22.8559L0.549528 12.8469C0.493516 12.8025 0.430136 12.7794 0.365727 12.7799C0.301318 12.7805 0.238137 12.8046 0.182503 12.8499C0.126869 12.8952 0.0807318 12.9602 0.0487054 13.0382C0.016679 13.1162 -0.000113879 13.2046 5.87967e-06 13.2945V39.557C-0.000400507 39.6573 0.0202676 39.7555 0.0594518 39.8396C0.098636 39.9237 0.154616 39.9899 0.220463 40.03C0.286311 40.0701 0.359134 40.0823 0.429921 40.0652C0.500708 40.0481 0.56635 40.0024 0.618723 39.9338L13.1666 23.6796V23.6796Z" fill="black"/>
</svg>
