<svg width="296" height="270" viewBox="0 0 296 270" fill="none" xmlns="http://www.w3.org/2000/svg">
<g clip-path="url(#clip0)" filter="url(#filter0_d)">
<path d="M238.332 82.8899C235.273 81.8404 232.188 80.8681 229.08 79.974C229.602 77.8406 230.083 75.7331 230.509 73.6627C237.513 39.663 232.934 12.2721 217.295 3.2537C202.3 -5.39191 177.777 3.6231 153.01 25.1776C150.569 27.3057 148.182 29.4951 145.852 31.7438C144.292 30.2485 142.704 28.7823 141.09 27.3458C115.133 4.29903 89.1152 -5.41437 73.4925 3.62984C58.5109 12.3024 54.0747 38.0517 60.3803 70.274C61.0077 73.4653 61.716 76.6402 62.5047 79.7955C58.8219 80.8419 55.2682 81.9557 51.8672 83.1414C21.4347 93.7519 2 110.38 2 127.627C2 145.44 22.864 163.308 54.5608 174.142C57.1306 175.016 59.7217 175.827 62.3318 176.572C61.4841 179.971 60.7315 183.392 60.0749 186.833C54.0634 218.496 58.7579 243.637 73.6991 252.254C89.1309 261.154 115.032 252.007 140.251 229.961C142.296 228.168 144.296 226.325 146.249 224.433C148.773 226.868 151.364 229.232 154.019 231.523C178.449 252.544 202.576 261.032 217.503 252.391C232.92 243.466 237.931 216.458 231.425 183.599C230.913 181.025 230.338 178.463 229.702 175.917C231.521 175.378 233.306 174.823 235.046 174.246C267.999 163.329 289.439 145.678 289.439 127.627C289.439 110.317 269.376 93.5768 238.332 82.8899ZM231.185 162.591C229.613 163.111 228.001 163.613 226.357 164.101C222.719 152.585 217.81 140.339 211.802 127.687C217.535 115.336 222.255 103.246 225.791 91.805C228.732 92.6561 231.585 93.5532 234.336 94.4997C260.935 103.657 277.16 117.195 277.16 127.627C277.16 138.738 259.637 153.163 231.185 162.591ZM219.38 185.984C222.257 200.513 222.666 213.65 220.761 223.92C219.05 233.148 215.607 239.3 211.35 241.765C202.292 247.008 182.92 240.193 162.028 222.215C159.558 220.085 157.148 217.887 154.801 215.624C162.9 206.766 170.995 196.469 178.895 185.032C192.791 183.799 205.919 181.782 217.824 179.03C218.41 181.396 218.931 183.716 219.38 185.984ZM99.9941 240.859C91.1441 243.984 84.0952 244.073 79.8341 241.617C70.7674 236.388 66.9982 216.201 72.1395 189.123C72.7507 185.923 73.4504 182.741 74.238 179.58C86.0118 182.185 99.0442 184.058 112.973 185.188C120.927 196.379 129.254 206.665 137.647 215.672C135.864 217.398 134.038 219.08 132.172 220.716C121.019 230.464 109.843 237.38 99.9941 240.859ZM58.5333 162.523C44.5173 157.732 32.9423 151.506 25.0086 144.712C17.8787 138.607 14.2801 132.545 14.2801 127.627C14.2801 117.16 29.8838 103.81 55.9093 94.7366C59.0678 93.6363 62.3733 92.5977 65.8035 91.6231C69.401 103.323 74.119 115.556 79.8128 127.926C74.0449 140.479 69.2595 152.907 65.6272 164.745C63.2448 164.062 60.8794 163.321 58.5333 162.523ZM72.4314 67.915C67.0296 40.3086 70.617 19.4839 79.6455 14.2572C89.2612 8.69033 110.525 16.6275 132.937 36.5281C134.399 37.8287 135.837 39.1557 137.25 40.5084C128.899 49.4763 120.647 59.686 112.764 70.8108C99.2452 72.0638 86.3048 74.0759 74.4076 76.7717C73.6746 73.8369 73.0157 70.8841 72.4314 67.9162V67.915ZM196.42 98.5317C193.61 93.6777 190.695 88.8849 187.679 84.1564C196.85 85.3163 205.637 86.8557 213.888 88.7375C211.411 96.678 208.324 104.979 204.689 113.49C202.032 108.449 199.275 103.462 196.42 98.5317ZM145.857 49.2843C151.521 55.4204 157.193 62.2707 162.772 69.7037C151.455 69.1691 140.118 69.1669 128.8 69.6969C134.385 62.3324 140.105 55.4912 145.857 49.2843ZM94.9707 98.6159C92.1506 103.507 89.445 108.463 86.8561 113.48C83.2811 104.999 80.2215 96.66 77.7232 88.6072C85.9242 86.7726 94.6698 85.2725 103.782 84.134C100.732 88.8913 97.7942 93.7196 94.9707 98.6148V98.6159ZM104.044 171.994C94.6293 170.943 85.7524 169.52 77.5537 167.735C80.0912 159.538 83.2182 151.022 86.8707 142.359C89.4698 147.38 92.1867 152.339 95.019 157.232C97.9315 162.262 100.947 167.189 104.044 171.994ZM146.197 206.834C140.376 200.556 134.571 193.609 128.902 186.138C134.406 186.353 140.017 186.463 145.719 186.463C151.578 186.463 157.37 186.332 163.07 186.078C157.473 193.684 151.822 200.641 146.197 206.834ZM204.805 141.917C208.647 150.675 211.885 159.146 214.456 167.203C206.123 169.105 197.125 170.636 187.644 171.774C190.682 166.957 193.624 162.081 196.468 157.148C199.36 152.133 202.139 147.055 204.805 141.917ZM185.832 151.013C181.478 158.577 176.879 165.997 172.042 173.261C163.282 173.882 154.502 174.19 145.719 174.185C136.774 174.185 128.073 173.907 119.695 173.363C114.732 166.116 110.046 158.682 105.645 151.08H105.646C101.266 143.518 97.1754 135.793 93.3819 127.92C97.1657 120.046 101.244 112.316 105.609 104.749L105.608 104.75C109.971 97.1801 114.621 89.7789 119.546 82.562C128.093 81.9153 136.859 81.5785 145.718 81.5785H145.719C154.619 81.5785 163.396 81.9187 171.941 82.5699C176.817 89.7759 181.436 97.1517 185.791 104.684C190.171 112.235 194.303 119.926 198.182 127.746C194.343 135.646 190.223 143.406 185.832 151.013ZM211.162 13.8912C220.787 19.4423 224.53 41.8277 218.483 71.1835C218.097 73.0564 217.663 74.964 217.192 76.8986C205.265 74.1455 192.316 72.0986 178.758 70.8265C170.86 59.5793 162.676 49.3539 154.46 40.5017C156.613 38.4262 158.818 36.4045 161.071 34.4385C182.292 15.9717 202.126 8.68023 211.162 13.8912ZM145.719 101.96C159.895 101.96 171.387 113.452 171.387 127.627C171.387 141.802 159.895 153.294 145.719 153.294C131.544 153.294 120.052 141.802 120.052 127.627C120.052 113.452 131.544 101.96 145.719 101.96Z" fill="#00D8FF"/>
</g>
<defs>
<filter id="filter0_d" x="0" y="0" width="295.44" height="270" filterUnits="userSpaceOnUse" color-interpolation-filters="sRGB">
<feFlood flood-opacity="0" result="BackgroundImageFix"/>
<feColorMatrix in="SourceAlpha" type="matrix" values="0 0 0 0 0 0 0 0 0 0 0 0 0 0 0 0 0 0 127 0"/>
<feOffset dx="2" dy="10"/>
<feGaussianBlur stdDeviation="2"/>
<feColorMatrix type="matrix" values="0 0 0 0 0 0 0 0 0 0 0 0 0 0 0 0 0 0 0.25 0"/>
<feBlend mode="normal" in2="BackgroundImageFix" result="effect1_dropShadow"/>
<feBlend mode="normal" in="SourceGraphic" in2="effect1_dropShadow" result="shape"/>
</filter>
<clipPath id="clip0">
<rect width="287.44" height="256" fill="white" transform="translate(2)"/>
</clipPath>
</defs>
</svg>
