<svg width="349" height="282" viewBox="0 0 349 282" fill="none" xmlns="http://www.w3.org/2000/svg">
<g filter="url(#filter0_d)">
<path d="M295.103 153.708C283.228 153.773 272.907 156.768 264.266 161.197C261.094 154.619 257.923 148.759 257.364 144.46C256.742 139.446 255.996 136.385 256.742 130.394C257.488 124.402 260.846 115.871 260.783 115.22C260.722 114.569 260.036 111.508 253.198 111.443C246.359 111.378 240.452 112.811 239.768 114.699C239.084 116.587 237.779 120.886 236.908 125.313C235.727 131.827 223.231 155.074 216.082 167.253C213.78 162.5 211.791 158.331 211.355 155.01C210.734 149.996 209.987 146.935 210.734 140.944C211.48 134.952 214.838 126.422 214.775 125.77C214.712 125.119 214.028 122.058 207.19 121.993C200.35 121.928 194.443 123.361 193.76 125.249C193.076 127.138 192.33 131.566 190.9 135.864C189.47 140.163 172.87 178.977 168.518 189.004C166.759 193.063 164.914 197.08 162.984 201.053C162.984 201.053 162.922 201.248 162.735 201.574C162.129 202.819 161.508 204.057 160.871 205.286V205.35C159.938 207.11 158.943 208.737 158.446 208.737C158.072 208.737 157.388 204.048 158.57 197.666C161.056 184.186 166.963 163.216 166.902 162.5C166.902 162.109 168.02 158.462 163.047 156.573C158.196 154.685 156.456 157.81 156.02 157.81C155.586 157.81 155.274 158.918 155.274 158.918C155.274 158.918 160.684 135.343 144.954 135.343C135.131 135.343 121.576 146.61 114.862 156.768C107.229 161.119 99.602 165.483 91.9818 169.859C88.3151 172.008 84.5218 174.157 80.9778 176.175C80.7285 175.916 80.4805 175.589 80.2311 175.329C61.2058 154.034 26.0165 138.99 27.5085 110.402C28.0685 99.9817 31.4871 72.6295 95.0911 39.4172C147.44 12.3904 189.098 19.8789 196.31 36.4857C206.63 60.1915 173.99 104.215 119.898 110.596C99.2565 113.006 88.4378 104.67 85.7031 101.544C82.8431 98.2876 82.4071 98.0921 81.3498 98.7443C79.6098 99.7219 80.7285 102.652 81.3498 104.345C82.9671 108.772 89.6191 116.587 100.872 120.431C110.82 123.816 135.006 125.705 164.29 113.853C197.055 100.567 222.671 63.6424 215.148 32.7094C207.624 1.31964 157.886 -9.03467 110.82 8.48275C82.8431 18.9041 52.5018 35.314 30.6791 56.6748C4.75247 82.0718 0.648473 104.149 2.32714 113.397C8.35914 146.219 51.5698 167.579 68.8538 183.404C67.9831 183.925 67.1738 184.382 66.4911 184.773C57.8485 189.266 24.8965 207.304 16.6898 226.386C7.36447 248.006 18.1831 263.507 25.3325 265.589C47.5285 272.037 70.3458 260.446 82.5938 241.298C94.8418 222.152 93.3498 197.275 87.6925 185.879C87.6298 185.749 87.5685 185.618 87.4431 185.488C89.6818 184.121 91.9818 182.688 94.2205 181.32C98.335 178.773 102.502 176.319 106.718 173.96C104.603 180.017 103.048 187.246 102.303 197.666C101.37 209.91 106.156 225.799 112.436 232.05C115.235 234.787 118.53 234.852 120.644 234.852C127.98 234.852 131.276 228.469 134.944 220.915C139.42 211.668 143.462 200.923 143.462 200.923C143.462 200.923 138.426 229.968 152.104 229.968C157.078 229.968 162.114 223.194 164.352 219.743V219.808C164.352 219.808 164.476 219.612 164.726 219.157C165.223 218.31 165.534 217.788 165.534 217.788V217.66C167.523 214.012 172 205.741 178.652 192C187.232 174.287 195.502 152.146 195.502 152.146C195.502 152.146 196.248 157.55 198.796 166.538C200.29 171.812 203.396 177.608 205.884 183.209C203.895 186.14 202.651 187.767 202.651 187.767L202.714 187.833C201.096 190.046 199.356 192.455 197.428 194.802C190.651 203.266 182.57 212.971 181.45 215.77C180.143 219.091 180.455 221.502 182.943 223.455C184.746 224.888 187.978 225.083 191.274 224.888C197.367 224.432 201.656 222.869 203.77 221.893C207.066 220.655 210.92 218.766 214.526 215.966C221.179 210.821 225.219 203.462 224.847 193.76C224.66 188.419 222.982 183.079 220.93 178.064C221.552 177.153 222.111 176.241 222.734 175.329C233.24 159.243 241.386 141.594 241.386 141.594C241.386 141.594 242.132 146.999 244.68 155.988C245.924 160.546 248.474 165.496 250.711 170.314C240.826 178.716 234.732 188.483 232.556 194.866C228.64 206.719 231.686 212.058 237.468 213.295C240.079 213.882 243.81 212.579 246.546 211.341C250.027 210.17 254.131 208.152 258.048 205.155C264.702 200.011 271.104 192.846 270.731 183.144C270.544 178.716 269.426 174.351 267.871 170.118C276.264 166.473 287.083 164.454 300.884 166.146C330.48 169.793 336.324 189.134 335.204 197.276C334.086 205.416 327.868 209.844 325.818 211.212C323.764 212.58 323.082 213.036 323.268 214.012C323.516 215.445 324.511 215.38 326.253 215.119C328.678 214.664 341.796 208.541 342.355 193.563C343.288 174.417 325.879 153.513 295.103 153.708ZM66.8018 234.331C56.9778 245.531 43.3005 249.764 37.3938 246.184C31.0525 242.34 33.5391 225.799 45.6005 213.948C52.9365 206.719 62.3871 200.01 68.6671 195.908C70.0965 194.996 72.2111 193.694 74.7605 192.066C75.1951 191.805 75.4445 191.675 75.4445 191.675L76.9365 190.697C81.3498 207.629 77.1231 222.544 66.8018 234.331ZM138.302 183.404C134.882 192.131 127.732 214.468 123.38 213.231C119.65 212.189 117.348 195.257 122.634 178.52C125.307 170.118 130.964 160.089 134.26 156.183C139.607 149.931 145.514 147.846 146.943 150.387C148.747 153.708 140.415 177.934 138.302 183.404ZM197.304 212.97C195.874 213.752 194.507 214.273 193.884 213.882C193.45 213.621 194.507 212.579 194.507 212.579C194.507 212.579 201.906 204.244 204.827 200.466C206.507 198.253 208.495 195.648 210.61 192.717V193.563C210.61 203.528 201.407 210.235 197.303 212.97H197.304ZM242.815 202.095C241.758 201.313 241.944 198.708 245.488 190.567C246.856 187.376 250.088 182.037 255.623 176.892C256.244 178.976 256.68 180.995 256.618 182.883C256.555 195.452 247.976 200.141 242.815 202.095Z" fill="#CD6799"/>
</g>
<defs>
<filter id="filter0_d" x="0" y="0" width="348.391" height="281.383" filterUnits="userSpaceOnUse" color-interpolation-filters="sRGB">
<feFlood flood-opacity="0" result="BackgroundImageFix"/>
<feColorMatrix in="SourceAlpha" type="matrix" values="0 0 0 0 0 0 0 0 0 0 0 0 0 0 0 0 0 0 127 0"/>
<feOffset dx="2" dy="10"/>
<feGaussianBlur stdDeviation="2"/>
<feColorMatrix type="matrix" values="0 0 0 0 0 0 0 0 0 0 0 0 0 0 0 0 0 0 0.25 0"/>
<feBlend mode="normal" in2="BackgroundImageFix" result="effect1_dropShadow"/>
<feBlend mode="normal" in="SourceGraphic" in2="effect1_dropShadow" result="shape"/>
</filter>
</defs>
</svg>
