<svg width="63" height="50" viewBox="0 0 63 50" fill="none" xmlns="http://www.w3.org/2000/svg">
<path d="M59.9902 0H2.05974C1.51352 0.000666231 0.989865 0.226832 0.603705 0.62886C0.217545 1.03089 0.000426526 1.57593 0 2.14438V6.45829C0 6.65704 0.207102 6.88515 0.376329 6.9774L30.8259 25.0775C30.9039 25.1239 30.9924 25.148 31.0822 25.1472C31.174 25.1474 31.2642 25.1219 31.3433 25.0734L60.8726 6.99501C61.0386 6.89857 61.4786 6.64363 61.6438 6.52622C61.8437 6.38449 62.05 6.25618 62.05 6.00208V2.14354C62.0493 1.57524 61.8321 1.03041 61.446 0.628564C61.0598 0.226717 60.5363 0.000665844 59.9902 0Z" fill="black"/>
<path d="M61.7929 12.963C61.7137 12.916 61.6239 12.8915 61.5326 12.8921C61.4414 12.8927 61.3519 12.9183 61.2732 12.9664L44.5624 23.1992C44.4958 23.2396 44.4388 23.2951 44.3956 23.3615C44.3524 23.428 44.3242 23.5037 44.313 23.583C44.3017 23.6624 44.3078 23.7434 44.3308 23.8199C44.3537 23.8965 44.393 23.9667 44.4455 24.0253L61.1587 42.7759C61.2066 42.8301 61.2648 42.8732 61.3296 42.9027C61.3944 42.9322 61.4644 42.9473 61.5351 42.947C61.6716 42.9468 61.8024 42.8903 61.8989 42.7898C61.9955 42.6894 62.0498 42.5532 62.05 42.4111V13.4285C62.0504 13.3342 62.0268 13.2415 61.9816 13.1598C61.9365 13.078 61.8714 13.0102 61.7929 12.963Z" fill="black"/>
<path d="M39.746 26.6341C39.6667 26.5441 39.5601 26.4853 39.4441 26.4673C39.3281 26.4493 39.2097 26.4732 39.1086 26.5351L32.4104 30.6368C32.018 30.8728 31.5733 30.9985 31.1201 31.0016C30.6668 31.0047 30.2206 30.885 29.8252 30.6544L23.9305 27.1498C23.8353 27.0934 23.7254 27.07 23.6166 27.083C23.5078 27.0959 23.4058 27.1446 23.3253 27.2219L0.940575 48.83C0.881892 48.8871 0.836835 48.9577 0.808996 49.0361C0.781158 49.1145 0.771307 49.1986 0.78023 49.2817C0.789153 49.3648 0.816602 49.4446 0.86039 49.5147C0.904178 49.5847 0.963094 49.6432 1.03244 49.6854C1.38057 49.8984 1.7166 49.9999 2.05828 49.9999H59.3965C59.4968 50.0001 59.595 49.9696 59.6788 49.9122C59.7626 49.8548 59.8284 49.773 59.8679 49.677C59.9081 49.5816 59.9205 49.476 59.9036 49.3733C59.8867 49.2706 59.8412 49.1753 59.7728 49.0992L39.746 26.6341Z" fill="black"/>
<path d="M18.4007 24.6662C18.4599 24.6092 18.5055 24.5384 18.5337 24.4597C18.5618 24.3809 18.5718 24.2964 18.5628 24.2129C18.5538 24.1294 18.526 24.0492 18.4817 23.979C18.4375 23.9087 18.378 23.8502 18.308 23.8083L0.767978 13.3823C0.6897 13.336 0.601125 13.312 0.511112 13.3125C0.421099 13.3131 0.332802 13.3382 0.255052 13.3854C0.177302 13.4326 0.112825 13.5002 0.0680669 13.5815C0.0233093 13.6628 -0.000159149 13.7549 8.21697e-06 13.8486V41.2052C-0.000559718 41.3096 0.0283245 41.412 0.0830852 41.4996C0.137846 41.5872 0.216079 41.6561 0.308103 41.6979C0.400126 41.7396 0.501899 41.7524 0.600825 41.7346C0.699751 41.7168 0.791487 41.6692 0.864679 41.5977L18.4007 24.6662Z" fill="black"/>
</svg>
