<svg width="111" height="48" viewBox="0 0 111 48" fill="none" xmlns="http://www.w3.org/2000/svg">
<rect width="111" height="48" fill="white"/>
<path d="M63.358 16.696V18.656H58.36V20.854H62.784V22.814H58.36V25.04H63.554V27H56.33V16.696H63.358ZM67.7122 22.94V24.648H65.0802V22.94H67.7122ZM77.6755 20.574C78.2728 20.574 78.7488 20.742 79.1035 21.078C79.4675 21.414 79.6588 21.8573 79.6775 22.408V27H77.7315V23.22C77.7128 22.912 77.6615 22.6833 77.5775 22.534C77.4935 22.3753 77.3302 22.2867 77.0875 22.268C76.6302 22.268 76.2708 22.492 76.0095 22.94C75.7575 23.3787 75.6315 23.8967 75.6315 24.494V27H73.6715V23.22C73.6528 22.912 73.5968 22.6833 73.5035 22.534C73.4102 22.3753 73.2375 22.2867 72.9855 22.268C72.5468 22.268 72.2015 22.492 71.9495 22.94C71.6975 23.3787 71.5715 23.8873 71.5715 24.466V27H69.6115V20.882H71.3895L71.5295 21.848C72.0242 20.9987 72.7615 20.574 73.7415 20.574C74.2362 20.574 74.6422 20.6767 74.9595 20.882C75.2862 21.078 75.5102 21.372 75.6315 21.764C75.8928 21.4 76.2008 21.1107 76.5555 20.896C76.9195 20.6813 77.2928 20.574 77.6755 20.574ZM88.2775 20.882V27H86.3175V26.244C85.7295 26.86 85.0481 27.168 84.2735 27.168C83.3681 27.168 82.6308 26.8973 82.0615 26.356C81.5015 25.8147 81.2215 25.012 81.2215 23.948C81.2215 23.276 81.3568 22.688 81.6275 22.184C81.9075 21.6707 82.2761 21.274 82.7335 20.994C83.1908 20.714 83.6808 20.574 84.2035 20.574C84.7448 20.574 85.1741 20.658 85.4915 20.826C85.8088 20.9847 86.0888 21.2133 86.3315 21.512L86.4575 20.882H88.2775ZM84.8335 25.572C85.5148 25.572 86.0095 25.264 86.3175 24.648V23.15C86.2055 22.8513 86.0095 22.6133 85.7295 22.436C85.4588 22.2587 85.1368 22.17 84.7635 22.17C84.3341 22.17 83.9655 22.3287 83.6575 22.646C83.3588 22.9633 83.2095 23.3647 83.2095 23.85C83.2095 24.1673 83.2841 24.4613 83.4335 24.732C83.5828 24.9933 83.7788 25.1987 84.0215 25.348C84.2735 25.4973 84.5441 25.572 84.8335 25.572ZM92.2571 20.882V27H90.2971V20.882H92.2571ZM90.2551 18.712C90.2551 18.432 90.3624 18.1987 90.5771 18.012C90.8011 17.816 91.0531 17.718 91.3331 17.718C91.6037 17.718 91.8464 17.816 92.0611 18.012C92.2757 18.1987 92.3831 18.432 92.3831 18.712C92.3831 18.992 92.2757 19.2253 92.0611 19.412C91.8464 19.5987 91.6037 19.692 91.3331 19.692C91.0531 19.692 90.8011 19.5987 90.5771 19.412C90.3624 19.2253 90.2551 18.992 90.2551 18.712ZM96.2356 15.954V27H94.2756V15.954H96.2356Z" fill="black"/>
<mask id="path-3-outside-1" maskUnits="userSpaceOnUse" x="7.62939e-06" y="0" width="55" height="30" fill="black">
<rect fill="white" x="7.62939e-06" width="55" height="30"/>
<path d="M47.9261 5H6.47386C6.08301 5.00051 5.70831 5.17239 5.43199 5.47794C5.15567 5.78348 5.00031 6.19772 5.00001 6.62974V9.90833C5.00001 10.0594 5.1482 10.2327 5.26929 10.3029L27.0576 24.059C27.1134 24.0943 27.1767 24.1125 27.2409 24.1119C27.3066 24.1121 27.3712 24.0928 27.4278 24.0559L48.5575 10.3162C48.6763 10.2429 48.9912 10.0492 49.1094 9.95995C49.2524 9.85224 49.4 9.75472 49.4 9.5616V6.6291C49.3995 6.19719 49.2441 5.78312 48.9678 5.47771C48.6915 5.17231 48.3169 5.00051 47.9261 5V5Z"/>
</mask>
<path d="M47.9261 5H6.47386C6.08301 5.00051 5.70831 5.17239 5.43199 5.47794C5.15567 5.78348 5.00031 6.19772 5.00001 6.62974V9.90833C5.00001 10.0594 5.1482 10.2327 5.26929 10.3029L27.0576 24.059C27.1134 24.0943 27.1767 24.1125 27.2409 24.1119C27.3066 24.1121 27.3712 24.0928 27.4278 24.0559L48.5575 10.3162C48.6763 10.2429 48.9912 10.0492 49.1094 9.95995C49.2524 9.85224 49.4 9.75472 49.4 9.5616V6.6291C49.3995 6.19719 49.2441 5.78312 48.9678 5.47771C48.6915 5.17231 48.3169 5.00051 47.9261 5V5Z" fill="black"/>
<path d="M6.47386 5L6.47386 -4.1957e-06L6.46738 4.1957e-06L6.47386 5ZM5.00001 6.62974L7.62939e-06 6.6262V6.62974H5.00001ZM5.26929 10.3029L7.93859 6.07499L7.85754 6.02382L7.7746 5.97579L5.26929 10.3029ZM27.0576 24.059L29.7279 19.8318L29.7269 19.8312L27.0576 24.059ZM27.2409 24.1119L27.2562 19.112L27.2249 19.1119L27.1935 19.1122L27.2409 24.1119ZM27.4278 24.0559L24.7021 19.8641L24.6959 19.8682L27.4278 24.0559ZM48.5575 10.3162L45.9319 6.06112L45.8815 6.09222L45.8319 6.1245L48.5575 10.3162ZM49.1094 9.95995L46.1011 5.96616L46.097 5.96929L49.1094 9.95995ZM49.4 6.6291L54.4 6.6291L54.4 6.6238L49.4 6.6291ZM47.9261 0H6.47386V10H47.9261V0ZM6.46738 4.1957e-06C4.58169 0.00244708 2.88855 0.835989 1.72355 2.12421L9.14043 8.83166C8.52806 9.5088 7.58433 9.99857 6.48033 10L6.46738 4.1957e-06ZM1.72355 2.12421C0.573472 3.39593 0.00114206 5.02216 8.87709e-06 6.6262L10 6.63327C9.99948 7.37327 9.73787 8.17103 9.14043 8.83166L1.72355 2.12421ZM7.62939e-06 6.62974V9.90833H10V6.62974H7.62939e-06ZM7.62939e-06 9.90833C7.62939e-06 11.4949 0.705738 12.6147 1.06067 13.0975C1.46557 13.6483 2.03092 14.2055 2.76399 14.6299L7.7746 5.97579C8.38657 6.33012 8.81728 6.76561 9.11781 7.17442C9.36837 7.51526 10 8.47281 10 9.90833H7.62939e-06ZM2.6 14.5307L24.3883 28.2869L29.7269 19.8312L7.93859 6.07499L2.6 14.5307ZM24.3872 28.2863C25.2327 28.8203 26.2357 29.1217 27.2883 29.1117L27.1935 19.1122C28.1176 19.1034 28.994 19.3683 29.7279 19.8318L24.3872 28.2863ZM27.2256 29.1119C28.2954 29.1152 29.3105 28.7975 30.1597 28.2435L24.6959 19.8682C25.4318 19.3881 26.3179 19.1091 27.2562 19.112L27.2256 29.1119ZM30.1534 28.2476L51.2832 14.508L45.8319 6.1245L24.7021 19.8641L30.1534 28.2476ZM51.1832 14.5714C51.2376 14.5378 51.3733 14.4543 51.5129 14.3656C51.5945 14.3139 51.8744 14.1374 52.1218 13.9506L46.097 5.96929C46.1541 5.92617 46.195 5.89769 46.2066 5.88962C46.2219 5.87905 46.2289 5.87445 46.2248 5.87717C46.2157 5.8832 46.1928 5.89817 46.1544 5.92252C46.0774 5.97139 45.9963 6.02139 45.9319 6.06112L51.1832 14.5714ZM52.1176 13.9537C51.9634 14.0699 52.5762 13.6455 53.0549 13.1039C53.7267 12.3437 54.4 11.1378 54.4 9.5616H44.4C44.4 8.94585 44.5231 8.32509 44.77 7.7416C45.0092 7.1763 45.3163 6.75949 45.5617 6.48172C45.7961 6.21648 46.0044 6.04525 46.0813 5.98339C46.13 5.94419 46.2203 5.87636 46.1011 5.96616L52.1176 13.9537ZM54.4 9.5616V6.6291H44.4V9.5616H54.4ZM54.4 6.6238C54.3983 5.02015 53.8257 3.39448 52.6756 2.12327L45.26 8.83216C44.6625 8.17175 44.4008 7.37423 44.4 6.6344L54.4 6.6238ZM52.6756 2.12327C51.5106 0.835565 49.8178 0.00244565 47.9326 4.19297e-06L47.9197 10C46.816 9.99857 45.8724 9.50905 45.26 8.83216L52.6756 2.12327Z" fill="white" mask="url(#path-3-outside-1)"/>
<mask id="path-5-outside-2" maskUnits="userSpaceOnUse" x="31.7043" y="9.798" width="23" height="33" fill="black">
<rect fill="white" x="31.7043" y="9.798" width="23" height="33"/>
<path d="M49.2161 14.8519C49.1593 14.8162 49.0951 14.7976 49.0298 14.798C48.9645 14.7985 48.9005 14.8179 48.8441 14.8545L36.8867 22.6315C36.8391 22.6622 36.7983 22.7043 36.7674 22.7548C36.7365 22.8053 36.7163 22.8628 36.7082 22.9232C36.7002 22.9835 36.7046 23.045 36.721 23.1032C36.7374 23.1614 36.7655 23.2148 36.8031 23.2593L48.7623 37.5098C48.7965 37.551 48.8382 37.5838 48.8845 37.6062C48.9309 37.6286 48.9809 37.64 49.0315 37.6399C49.1292 37.6397 49.2228 37.5967 49.2919 37.5204C49.361 37.444 49.3999 37.3405 49.4 37.2326V15.2057C49.4003 15.134 49.3834 15.0636 49.3511 15.0015C49.3188 14.9393 49.2722 14.8877 49.2161 14.8519Z"/>
</mask>
<path d="M49.2161 14.8519C49.1593 14.8162 49.0951 14.7976 49.0298 14.798C48.9645 14.7985 48.9005 14.8179 48.8441 14.8545L36.8867 22.6315C36.8391 22.6622 36.7983 22.7043 36.7674 22.7548C36.7365 22.8053 36.7163 22.8628 36.7082 22.9232C36.7002 22.9835 36.7046 23.045 36.721 23.1032C36.7374 23.1614 36.7655 23.2148 36.8031 23.2593L48.7623 37.5098C48.7965 37.551 48.8382 37.5838 48.8845 37.6062C48.9309 37.6286 48.9809 37.64 49.0315 37.6399C49.1292 37.6397 49.2228 37.5967 49.2919 37.5204C49.361 37.444 49.3999 37.3405 49.4 37.2326V15.2057C49.4003 15.134 49.3834 15.0636 49.3511 15.0015C49.3188 14.9393 49.2722 14.8877 49.2161 14.8519Z" fill="black"/>
<path d="M49.2161 14.8519L51.9059 10.6371L51.8943 10.6297L51.8826 10.6223L49.2161 14.8519ZM48.8441 14.8545L46.1229 10.6598L46.118 10.663L48.8441 14.8545ZM36.8867 22.6315L39.5942 26.835L39.6035 26.829L39.6128 26.8229L36.8867 22.6315ZM36.8031 23.2593L40.6331 20.0451L40.6284 20.0395L40.6236 20.0338L36.8031 23.2593ZM48.7623 37.5098L52.6047 34.3105L52.5985 34.3031L52.5923 34.2957L48.7623 37.5098ZM49.0315 37.6399L49.0229 32.6399L49.0142 32.6399L49.0315 37.6399ZM49.4 37.2326L54.4 37.2396V37.2326H49.4ZM49.4 15.2057L44.4 15.1881L44.4 15.1969V15.2057H49.4ZM51.8826 10.6223C51.0406 10.0915 50.043 9.79095 48.9955 9.79813L49.0641 19.7979C48.1472 19.8042 47.278 19.5408 46.5496 19.0816L51.8826 10.6223ZM48.9955 9.79813C47.9481 9.80531 46.9559 10.1194 46.1229 10.6598L51.5653 19.0491C50.845 19.5164 49.9809 19.7916 49.0641 19.7979L48.9955 9.79813ZM46.118 10.663L34.1606 18.44L39.6128 26.8229L51.5702 19.0459L46.118 10.663ZM34.1792 18.428C33.4709 18.8842 32.908 19.4823 32.5024 20.1452L41.0324 25.3644C40.6885 25.9264 40.2072 26.4401 39.5942 26.835L34.1792 18.428ZM32.5024 20.1452C32.0974 20.8071 31.8494 21.5317 31.752 22.2631L41.6645 23.5832C41.5831 24.194 41.3755 24.8036 41.0324 25.3644L32.5024 20.1452ZM31.752 22.2631C31.6546 22.9944 31.7062 23.7428 31.9089 24.4611L41.5331 21.7453C41.7029 22.3472 41.7458 22.9725 41.6645 23.5832L31.752 22.2631ZM31.9089 24.4611C32.1116 25.1796 32.4681 25.8754 32.9826 26.4848L40.6236 20.0338C41.0628 20.5541 41.3631 21.1432 41.5331 21.7453L31.9089 24.4611ZM32.9731 26.4735L44.9322 40.724L52.5923 34.2957L40.6331 20.0451L32.9731 26.4735ZM44.9198 40.7091C45.3921 41.2764 45.9955 41.7636 46.7103 42.1087L51.0587 33.1036C51.6808 33.404 52.2009 33.8256 52.6047 34.3105L44.9198 40.7091ZM46.7103 42.1087C47.4273 42.4549 48.2255 42.6427 49.0489 42.6398L49.0142 32.6399C49.7364 32.6374 50.4344 32.8022 51.0587 33.1036L46.7103 42.1087ZM49.0402 42.6399C50.6317 42.6371 52.0426 41.9328 52.9998 40.8747L45.584 34.1661C46.4031 33.2607 47.6267 32.6423 49.0229 32.6399L49.0402 42.6399ZM52.9998 40.8747C53.9421 39.8331 54.3982 38.5188 54.4 37.2396L44.4 37.2255C44.4015 36.1623 44.7798 35.055 45.584 34.1661L52.9998 40.8747ZM54.4 37.2326V15.2057H44.4V37.2326H54.4ZM54.4 15.2232C54.403 14.3623 54.2017 13.4919 53.7872 12.6948L44.9149 17.3081C44.5651 16.6353 44.3975 15.9058 44.4 15.1881L54.4 15.2232ZM53.7872 12.6948C53.3719 11.8961 52.74 11.1694 51.9059 10.6371L46.5262 19.0667C45.8044 18.6061 45.2656 17.9826 44.9149 17.3081L53.7872 12.6948Z" fill="white" mask="url(#path-5-outside-2)"/>
<mask id="path-7-outside-3" maskUnits="userSpaceOnUse" x="0.55603" y="19.1107" width="53" height="29" fill="black">
<rect fill="white" x="0.55603" y="19.1107" width="53" height="29"/>
<path d="M33.4403 25.2419C33.3836 25.1735 33.3073 25.1288 33.2243 25.1151C33.1413 25.1014 33.0566 25.1196 32.9842 25.1666L28.1913 28.284C27.9105 28.4633 27.5923 28.5589 27.268 28.5612C26.9437 28.5635 26.6244 28.4726 26.3415 28.2974L22.1235 25.6338C22.0554 25.591 21.9768 25.5732 21.8989 25.583C21.821 25.5929 21.748 25.6299 21.6905 25.6886L5.67305 42.1109C5.63106 42.1543 5.59882 42.2079 5.5789 42.2675C5.55898 42.3271 5.55193 42.391 5.55831 42.4542C5.5647 42.5173 5.58434 42.5779 5.61567 42.6312C5.64701 42.6845 5.68916 42.7289 5.73878 42.761C5.98789 42.9229 6.22834 43 6.47283 43H47.5013C47.5731 43.0001 47.6433 42.977 47.7033 42.9333C47.7633 42.8897 47.8103 42.8276 47.8386 42.7546C47.8674 42.6821 47.8763 42.6018 47.8642 42.5238C47.8521 42.4457 47.8195 42.3733 47.7706 42.3155L33.4403 25.2419Z"/>
</mask>
<path d="M33.4403 25.2419C33.3836 25.1735 33.3073 25.1288 33.2243 25.1151C33.1413 25.1014 33.0566 25.1196 32.9842 25.1666L28.1913 28.284C27.9105 28.4633 27.5923 28.5589 27.268 28.5612C26.9437 28.5635 26.6244 28.4726 26.3415 28.2974L22.1235 25.6338C22.0554 25.591 21.9768 25.5732 21.8989 25.583C21.821 25.5929 21.748 25.6299 21.6905 25.6886L5.67305 42.1109C5.63106 42.1543 5.59882 42.2079 5.5789 42.2675C5.55898 42.3271 5.55193 42.391 5.55831 42.4542C5.5647 42.5173 5.58434 42.5779 5.61567 42.6312C5.64701 42.6845 5.68916 42.7289 5.73878 42.761C5.98789 42.9229 6.22834 43 6.47283 43H47.5013C47.5731 43.0001 47.6433 42.977 47.7033 42.9333C47.7633 42.8897 47.8103 42.8276 47.8386 42.7546C47.8674 42.6821 47.8763 42.6018 47.8642 42.5238C47.8521 42.4457 47.8195 42.3733 47.7706 42.3155L33.4403 25.2419Z" fill="black"/>
<path d="M33.4403 25.2419L29.5943 28.4368L29.6024 28.4466L29.6105 28.4563L33.4403 25.2419ZM32.9842 25.1666L30.2582 20.9751L30.2581 20.9752L32.9842 25.1666ZM28.1913 28.284L30.8826 32.4979L30.9001 32.4867L30.9175 32.4754L28.1913 28.284ZM26.3415 28.2974L23.6719 32.525L23.6901 32.5365L23.7084 32.5478L26.3415 28.2974ZM22.1235 25.6338L24.7932 21.4062L24.7873 21.4025L22.1235 25.6338ZM21.6905 25.6886L18.1184 22.19L18.1111 22.1975L21.6905 25.6886ZM5.67305 42.1109L2.09368 38.6197L2.08686 38.6267L2.08007 38.6337L5.67305 42.1109ZM5.73878 42.761L8.46342 38.5685L8.45292 38.5618L5.73878 42.761ZM47.5013 43L47.5125 38H47.5013V43ZM47.8386 42.7546L43.191 40.9108L43.1836 40.9294L43.1764 40.9481L47.8386 42.7546ZM47.7706 42.3155L43.9408 45.5299L43.948 45.5385L43.9553 45.5471L47.7706 42.3155ZM37.2864 22.0469C36.5076 21.1094 35.3781 20.4027 34.0378 20.1817L32.4108 30.0485C31.2365 29.8548 30.2595 29.2377 29.5943 28.4368L37.2864 22.0469ZM34.0378 20.1817C32.6893 19.9594 31.3468 20.2671 30.2582 20.9751L35.7103 29.3582C34.7663 29.9721 33.5933 30.2435 32.4108 30.0485L34.0378 20.1817ZM30.2581 20.9752L25.4652 24.0925L30.9175 32.4754L35.7104 29.3581L30.2581 20.9752ZM25.5001 24.0701C25.9897 23.7573 26.588 23.566 27.2319 23.5613L27.3042 33.5611C28.5967 33.5517 29.8313 33.1693 30.8826 32.4979L25.5001 24.0701ZM27.2319 23.5613C27.8759 23.5567 28.4784 23.7394 28.9747 24.0469L23.7084 32.5478C24.7705 33.2058 26.0116 33.5704 27.3042 33.5611L27.2319 23.5613ZM29.0112 24.0697L24.7932 21.4062L19.4539 29.8615L23.6719 32.525L29.0112 24.0697ZM24.7873 21.4025C23.7665 20.7599 22.5287 20.4634 21.271 20.6226L22.5268 30.5434C21.4248 30.6829 20.3443 30.4221 19.4597 29.8652L24.7873 21.4025ZM21.271 20.6226C20.0183 20.7812 18.9236 21.368 18.1184 22.19L25.2626 29.1872C24.5725 29.8918 23.6238 30.4046 22.5268 30.5434L21.271 20.6226ZM18.1111 22.1975L2.09368 38.6197L9.25242 45.602L25.2699 29.1798L18.1111 22.1975ZM2.08007 38.6337C1.49716 39.2361 1.08363 39.9439 0.836751 40.6825L10.321 43.8524C10.114 44.4719 9.76496 45.0725 9.26603 45.588L2.08007 38.6337ZM0.836751 40.6825C0.590054 41.4207 0.506781 42.1966 0.58368 42.9572L10.5329 41.9511C10.5971 42.5854 10.5279 43.2335 10.321 43.8524L0.836751 40.6825ZM0.58368 42.9572C0.660579 43.7177 0.899017 44.4744 1.30593 45.1662L9.92541 40.0962C10.2697 40.6815 10.4688 41.3169 10.5329 41.9511L0.58368 42.9572ZM1.30593 45.1662C1.71359 45.8592 2.29059 46.4857 3.02465 46.9602L8.45292 38.5618C9.08774 38.9721 9.58042 39.5097 9.92541 40.0962L1.30593 45.1662ZM3.01415 46.9534C3.91892 47.5414 5.0912 48 6.47283 48V38C7.36548 38 8.05686 38.3043 8.46342 38.5686L3.01415 46.9534ZM6.47283 48H47.5013V38H6.47283V48ZM47.4901 48C48.6594 48.0026 49.7571 47.6223 50.6446 46.9767L44.762 38.89C45.5296 38.3316 46.4868 37.9977 47.5125 38L47.4901 48ZM50.6446 46.9767C51.5247 46.3365 52.1456 45.4779 52.5009 44.5611L43.1764 40.9481C43.4751 40.1772 44.0019 39.4429 44.762 38.89L50.6446 46.9767ZM52.4862 44.5984C52.8478 43.6871 52.952 42.7052 52.8052 41.7582L42.9231 43.2893C42.8006 42.4984 42.887 41.6771 43.191 40.9108L52.4862 44.5984ZM52.8052 41.7582C52.6584 40.8108 52.2561 39.8751 51.5859 39.0838L43.9553 45.5471C43.383 44.8715 43.0457 44.0806 42.9231 43.2893L52.8052 41.7582ZM51.6004 39.101L37.2701 22.0274L29.6105 28.4563L43.9408 45.5299L51.6004 39.101Z" fill="white" mask="url(#path-7-outside-3)"/>
<mask id="path-9-outside-4" maskUnits="userSpaceOnUse" x="0" y="10.1175" width="24" height="32" fill="black">
<rect fill="white" y="10.1175" width="24" height="32"/>
<path d="M18.1666 23.7464C18.209 23.703 18.2417 23.6492 18.2618 23.5894C18.282 23.5295 18.2891 23.4653 18.2826 23.4018C18.2762 23.3383 18.2563 23.2774 18.2246 23.224C18.193 23.1706 18.1504 23.1262 18.1003 23.0943L5.54953 15.1705C5.49352 15.1353 5.43014 15.1171 5.36573 15.1175C5.30132 15.1179 5.23814 15.137 5.1825 15.1729C5.12687 15.2087 5.08073 15.2601 5.04871 15.3219C5.01668 15.3837 4.99989 15.4537 5.00001 15.5249V36.316C4.9996 36.3954 5.02027 36.4732 5.05945 36.5398C5.09864 36.6063 5.15462 36.6587 5.22046 36.6905C5.28631 36.7222 5.35913 36.7319 5.42992 36.7184C5.50071 36.7048 5.56635 36.6686 5.61872 36.6143L18.1666 23.7464V23.7464Z"/>
</mask>
<path d="M18.1666 23.7464C18.209 23.703 18.2417 23.6492 18.2618 23.5894C18.282 23.5295 18.2891 23.4653 18.2826 23.4018C18.2762 23.3383 18.2563 23.2774 18.2246 23.224C18.193 23.1706 18.1504 23.1262 18.1003 23.0943L5.54953 15.1705C5.49352 15.1353 5.43014 15.1171 5.36573 15.1175C5.30132 15.1179 5.23814 15.137 5.1825 15.1729C5.12687 15.2087 5.08073 15.2601 5.04871 15.3219C5.01668 15.3837 4.99989 15.4537 5.00001 15.5249V36.316C4.9996 36.3954 5.02027 36.4732 5.05945 36.5398C5.09864 36.6063 5.15462 36.6587 5.22046 36.6905C5.28631 36.7222 5.35913 36.7319 5.42992 36.7184C5.50071 36.7048 5.56635 36.6686 5.61872 36.6143L18.1666 23.7464V23.7464Z" fill="black"/>
<path d="M18.1003 23.0943L20.7845 18.8759L20.777 18.8711L20.7696 18.8664L18.1003 23.0943ZM5.54953 15.1705L8.21879 10.9426L8.20737 10.9354L5.54953 15.1705ZM5.00001 15.5249L10 15.5249L10 15.5165L5.00001 15.5249ZM5.00001 36.316L9.99994 36.3416L10 36.3288V36.316H5.00001ZM5.61872 36.6143L2.03895 33.1236L2.02856 33.1342L2.01824 33.1449L5.61872 36.6143ZM21.7403 27.2433C22.331 26.6397 22.7501 25.9281 23.0004 25.185L13.5232 21.9937C13.7332 21.3704 14.0871 20.7663 14.5929 20.2494L21.7403 27.2433ZM23.0004 25.185C23.2504 24.4425 23.3348 23.6613 23.257 22.8959L13.3083 23.9077C13.2434 23.2692 13.3135 22.6165 13.5232 21.9937L23.0004 25.185ZM23.257 22.8959C23.1791 22.1304 22.9376 21.3689 22.5253 20.6737L13.924 25.7743C13.5751 25.186 13.3733 24.5463 13.3083 23.9077L23.257 22.8959ZM22.5253 20.6737C22.1124 19.9773 21.5278 19.3488 20.7845 18.8759L15.4162 27.3128C14.773 26.9035 14.2736 26.3639 13.924 25.7743L22.5253 20.6737ZM20.7696 18.8664L8.21878 10.9426L2.88028 19.3984L15.4311 27.3222L20.7696 18.8664ZM8.20737 10.9354C7.36831 10.4088 6.37538 10.1108 5.33322 10.1176L5.39823 20.1174C4.4849 20.1233 3.61873 19.8618 2.89169 19.4056L8.20737 10.9354ZM5.33322 10.1176C4.29125 10.1243 3.30344 10.4351 2.47268 10.9709L7.89233 19.3749C7.17284 19.8389 6.31138 20.1114 5.39823 20.1174L5.33322 10.1176ZM2.47268 10.9709C1.64706 11.5033 1.02152 12.2265 0.60984 13.0205L9.48757 17.6233C9.13994 18.2938 8.60668 18.9142 7.89233 19.3749L2.47268 10.9709ZM0.60984 13.0205C0.198988 13.8129 -0.00142633 14.6776 1.29533e-05 15.5333L10 15.5165C10.0012 16.2297 9.83437 16.9544 9.48757 17.6233L0.60984 13.0205ZM5.87967e-06 15.5249V36.316H10V15.5249H5.87967e-06ZM7.13599e-05 36.2904C-0.00480895 37.244 0.241234 38.2111 0.750762 39.0765L9.36814 34.003C9.7993 34.7353 10.004 35.5468 9.99994 36.3416L7.13599e-05 36.2904ZM0.750762 39.0765C1.26212 39.9451 2.04018 40.7079 3.04908 41.1943L7.39185 32.1866C8.26905 32.6095 8.93516 33.2676 9.36814 34.003L0.750762 39.0765ZM3.04908 41.1943C4.06648 41.6848 5.2286 41.8475 6.36901 41.6294L4.49084 31.8073C5.48967 31.6163 6.50614 31.7595 7.39185 32.1866L3.04908 41.1943ZM6.36901 41.6294C7.50429 41.4123 8.4859 40.8447 9.2192 40.0837L2.01824 33.1449C2.6468 32.4926 3.49712 31.9974 4.49084 31.8073L6.36901 41.6294ZM9.19849 40.105L21.7464 27.2371L14.5869 20.2556L2.03895 33.1236L9.19849 40.105Z" fill="white" mask="url(#path-9-outside-4)"/>
</svg>
