<svg width="179" height="270" viewBox="0 0 179 270" fill="none" xmlns="http://www.w3.org/2000/svg">
<g clip-path="url(#clip0)" filter="url(#filter0_d)">
<path d="M44.6683 256C68.2203 256 87.335 236.885 87.335 213.333V170.667H44.6683C21.1163 170.667 2.00168 189.781 2.00168 213.333C2.00168 236.885 21.1163 256 44.6683 256Z" fill="#0ACF83"/>
<path d="M2.00168 128C2.00168 104.448 21.1163 85.3335 44.6683 85.3335H87.335V170.667H44.6683C21.1163 170.667 2.00168 151.552 2.00168 128Z" fill="#A259FF"/>
<path d="M2.00168 42.6667C2.00168 19.1147 21.1163 0 44.6683 0H87.335V85.3333H44.6683C21.1163 85.3333 2.00168 66.2187 2.00168 42.6667Z" fill="#F24E1E"/>
<path d="M87.335 0H130.002C153.554 0 172.668 19.1147 172.668 42.6667C172.668 66.2187 153.554 85.3333 130.002 85.3333H87.335V0Z" fill="#FF7262"/>
<path d="M172.668 128C172.668 151.552 153.554 170.667 130.002 170.667C106.45 170.667 87.335 151.552 87.335 128C87.335 104.448 106.45 85.3335 130.002 85.3335C153.554 85.3335 172.668 104.448 172.668 128Z" fill="#1ABCFE"/>
</g>
<defs>
<filter id="filter0_d" x="0" y="0" width="178.67" height="270" filterUnits="userSpaceOnUse" color-interpolation-filters="sRGB">
<feFlood flood-opacity="0" result="BackgroundImageFix"/>
<feColorMatrix in="SourceAlpha" type="matrix" values="0 0 0 0 0 0 0 0 0 0 0 0 0 0 0 0 0 0 127 0"/>
<feOffset dx="2" dy="10"/>
<feGaussianBlur stdDeviation="2"/>
<feColorMatrix type="matrix" values="0 0 0 0 0 0 0 0 0 0 0 0 0 0 0 0 0 0 0.25 0"/>
<feBlend mode="normal" in2="BackgroundImageFix" result="effect1_dropShadow"/>
<feBlend mode="normal" in="SourceGraphic" in2="effect1_dropShadow" result="shape"/>
</filter>
<clipPath id="clip0">
<rect width="170.67" height="256" fill="white" transform="translate(2)"/>
</clipPath>
</defs>
</svg>
