<svg width="111" height="48" viewBox="0 0 111 48" fill="none" xmlns="http://www.w3.org/2000/svg">
<path d="M23.9812 3.57657C12.3891 3.57188 3 12.9563 3 24.5391C3 33.6984 8.87344 41.4844 17.0531 44.3438C18.1547 44.6203 17.9859 43.8375 17.9859 43.3031V39.6703C11.625 40.4156 11.3672 36.2063 10.9406 35.5031C10.0781 34.0313 8.03906 33.6563 8.64844 32.9531C10.0969 32.2078 11.5734 33.1406 13.2844 35.6672C14.5219 37.5 16.9359 37.1906 18.1594 36.8859C18.4266 35.7844 18.9984 34.8 19.7859 34.0359C13.1953 32.8547 10.4484 28.8328 10.4484 24.0516C10.4484 21.7313 11.2125 19.5984 12.7125 17.8781C11.7562 15.0422 12.8016 12.6141 12.9422 12.2531C15.6656 12.0094 18.4969 14.2031 18.7172 14.3766C20.2641 13.9594 22.0312 13.7391 24.0094 13.7391C25.9969 13.7391 27.7687 13.9688 29.3297 14.3906C29.8594 13.9875 32.4844 12.1031 35.0156 12.3328C35.1516 12.6938 36.1734 15.0656 35.2734 17.8641C36.7922 19.5891 37.5656 21.7406 37.5656 24.0656C37.5656 28.8563 34.8 32.8828 28.1906 34.0453C28.7567 34.6021 29.2062 35.266 29.5129 35.9984C29.8195 36.7308 29.9771 37.5169 29.9766 38.3109V43.5844C30.0141 44.0063 29.9766 44.4234 30.6797 44.4234C38.9812 41.625 44.9578 33.7828 44.9578 24.5438C44.9578 12.9563 35.5641 3.57657 23.9812 3.57657Z" fill="black"/>
<path d="M70.854 20.882V27C70.854 27.5787 70.686 28.1013 70.35 28.568C70.0233 29.044 69.5753 29.4127 69.006 29.674C68.446 29.9447 67.8347 30.08 67.172 30.08C66.668 30.08 66.2247 30.0193 65.842 29.898C65.4687 29.7767 65.1653 29.6413 64.932 29.492C64.708 29.3427 64.4373 29.1373 64.12 28.876L65.268 27.532C65.548 27.7933 65.8233 27.9987 66.094 28.148C66.374 28.2973 66.724 28.372 67.144 28.372C67.6387 28.372 68.054 28.246 68.39 27.994C68.726 27.7513 68.894 27.4107 68.894 26.972V26.104C68.7073 26.4213 68.418 26.678 68.026 26.874C67.6433 27.07 67.172 27.168 66.612 27.168C66.0613 27.168 65.548 27.028 65.072 26.748C64.6053 26.4587 64.232 26.0667 63.952 25.572C63.672 25.068 63.532 24.5127 63.532 23.906C63.532 23.29 63.6767 22.7253 63.966 22.212C64.2647 21.6987 64.652 21.2973 65.128 21.008C65.6133 20.7187 66.122 20.574 66.654 20.574C67.158 20.574 67.606 20.6487 67.998 20.798C68.39 20.938 68.6887 21.1247 68.894 21.358L69.048 20.882H70.854ZM67.2 25.572C67.984 25.572 68.5487 25.264 68.894 24.648V23.15C68.7633 22.8513 68.544 22.6133 68.236 22.436C67.9373 22.2587 67.592 22.17 67.2 22.17C66.724 22.17 66.3227 22.3287 65.996 22.646C65.6693 22.9633 65.506 23.3647 65.506 23.85C65.506 24.3353 65.6693 24.746 65.996 25.082C66.3227 25.4087 66.724 25.572 67.2 25.572ZM74.8274 20.882V27H72.8674V20.882H74.8274ZM72.8254 18.712C72.8254 18.432 72.9327 18.1987 73.1474 18.012C73.3714 17.816 73.6234 17.718 73.9034 17.718C74.174 17.718 74.4167 17.816 74.6314 18.012C74.846 18.1987 74.9534 18.432 74.9534 18.712C74.9534 18.992 74.846 19.2253 74.6314 19.412C74.4167 19.5987 74.174 19.692 73.9034 19.692C73.6234 19.692 73.3714 19.5987 73.1474 19.412C72.9327 19.2253 72.8254 18.992 72.8254 18.712ZM79.3799 18.194V20.854H80.8639V22.38H79.3799V27H77.4199V22.38H76.4679V20.854H77.4199V18.194H79.3799ZM86.6117 20.588C87.1903 20.588 87.671 20.7607 88.0537 21.106C88.4457 21.4513 88.6463 21.89 88.6557 22.422V27H86.6957V23.15C86.6677 22.5527 86.369 22.254 85.7997 22.254C85.3517 22.254 84.9923 22.464 84.7217 22.884C84.451 23.304 84.3157 23.8453 84.3157 24.508V27H82.3557V15.954H84.2737V21.848C84.4977 21.456 84.8057 21.148 85.1977 20.924C85.599 20.7 86.0703 20.588 86.6117 20.588ZM96.8282 20.882V27H95.0502L94.9102 26.02C94.6955 26.412 94.3922 26.7247 94.0002 26.958C93.6175 27.182 93.1648 27.294 92.6422 27.294C92.0822 27.294 91.6155 27.1213 91.2422 26.776C90.8688 26.4307 90.6775 25.992 90.6682 25.46V20.882H92.6282V24.732C92.6562 25.3293 92.9315 25.628 93.4542 25.628C93.8835 25.628 94.2242 25.418 94.4762 24.998C94.7375 24.578 94.8682 24.0367 94.8682 23.374V20.882H96.8282ZM103.128 20.574C103.66 20.574 104.145 20.7047 104.584 20.966C105.032 21.218 105.387 21.5867 105.648 22.072C105.909 22.5573 106.04 23.136 106.04 23.808C106.04 24.48 105.895 25.0727 105.606 25.586C105.317 26.09 104.929 26.482 104.444 26.762C103.959 27.0327 103.431 27.168 102.862 27.168C102.031 27.168 101.345 26.9067 100.804 26.384V27H98.8439V15.954H100.79V21.302C101.051 21.0873 101.383 20.9147 101.784 20.784C102.185 20.644 102.633 20.574 103.128 20.574ZM102.428 25.516C102.717 25.516 102.983 25.4413 103.226 25.292C103.478 25.1427 103.679 24.9373 103.828 24.676C103.977 24.4053 104.052 24.1113 104.052 23.794C104.052 23.3087 103.893 22.9073 103.576 22.59C103.259 22.2727 102.876 22.114 102.428 22.114C102.045 22.114 101.709 22.2027 101.42 22.38C101.131 22.5573 100.925 22.7953 100.804 23.094V24.592C101.14 25.208 101.681 25.516 102.428 25.516Z" fill="black"/>
</svg>
