<svg width="190" height="270" viewBox="0 0 190 270" fill="none" xmlns="http://www.w3.org/2000/svg">
<g clip-path="url(#clip0)" filter="url(#filter0_d)">
<path d="M183.23 50.1831L166.748 234.815L92.6644 255.353L18.7846 234.843L2.3205 50.1831H183.23Z" fill="#E44D26"/>
<path d="M92.775 239.654L152.639 223.058L166.722 65.2812H92.775V239.654Z" fill="#F16529"/>
<path d="M60.736 110.578H92.775V87.9302H35.9848L36.5266 94.0061L42.0934 156.418H92.775V133.77H62.806L60.736 110.578Z" fill="#EBEBEB"/>
<path d="M65.8404 167.742H43.1053L46.278 203.302L92.6707 216.18L92.775 216.152V192.589L92.6757 192.615L67.453 185.804L65.8404 167.742Z" fill="#EBEBEB"/>
<path d="M19.1519 0H30.6613V11.3711H41.1899V0H52.7V34.4345H41.1906V22.9038H30.662V34.4345H19.1527V0H19.1519Z" fill="black"/>
<path d="M67.8345 11.4193H57.7037V0H89.4832V11.4193H79.346V34.4345H67.8366V11.4193H67.8359H67.8345Z" fill="black"/>
<path d="M94.5266 0H106.527L113.91 12.0994L121.285 0H133.29V34.4345H121.828V17.3669L113.91 29.6102H113.711L105.788 17.3669V34.4345H94.5266V0Z" fill="black"/>
<path d="M139.018 0H150.531V23.0528H166.716V34.4345H139.017V0H139.018Z" fill="black"/>
<path d="M92.697 156.417H120.585L117.956 185.79L92.6963 192.608V216.17L139.126 203.302L139.466 199.476L144.789 139.851L145.342 133.77H92.697V156.417Z" fill="white"/>
<path d="M92.697 110.523V110.578H147.402L147.856 105.488L148.889 94.0061L149.43 87.9302H92.697V110.523V110.523Z" fill="white"/>
</g>
<defs>
<filter id="filter0_d" x="0" y="0" width="189.55" height="270" filterUnits="userSpaceOnUse" color-interpolation-filters="sRGB">
<feFlood flood-opacity="0" result="BackgroundImageFix"/>
<feColorMatrix in="SourceAlpha" type="matrix" values="0 0 0 0 0 0 0 0 0 0 0 0 0 0 0 0 0 0 127 0"/>
<feOffset dx="2" dy="10"/>
<feGaussianBlur stdDeviation="2"/>
<feColorMatrix type="matrix" values="0 0 0 0 0 0 0 0 0 0 0 0 0 0 0 0 0 0 0.25 0"/>
<feBlend mode="normal" in2="BackgroundImageFix" result="effect1_dropShadow"/>
<feBlend mode="normal" in="SourceGraphic" in2="effect1_dropShadow" result="shape"/>
</filter>
<clipPath id="clip0">
<rect width="181.55" height="256" fill="white" transform="translate(2)"/>
</clipPath>
</defs>
</svg>
