<svg width="111" height="48" viewBox="0 0 111 48" fill="none" xmlns="http://www.w3.org/2000/svg">
<path d="M41.25 5.25H6.75C5.92031 5.25 5.25 5.92031 5.25 6.75V41.25C5.25 42.0797 5.92031 42.75 6.75 42.75H41.25C42.0797 42.75 42.75 42.0797 42.75 41.25V6.75C42.75 5.92031 42.0797 5.25 41.25 5.25ZM16.3734 37.2047H10.8094V19.3078H16.3734V37.2047ZM13.5938 16.8609C12.9559 16.8609 12.3324 16.6718 11.802 16.3174C11.2717 15.9631 10.8583 15.4594 10.6142 14.8701C10.3701 14.2808 10.3063 13.6324 10.4307 13.0068C10.5552 12.3812 10.8623 11.8065 11.3133 11.3555C11.7644 10.9045 12.339 10.5973 12.9646 10.4729C13.5902 10.3485 14.2386 10.4123 14.8279 10.6564C15.4172 10.9005 15.9209 11.3139 16.2752 11.8442C16.6296 12.3746 16.8187 12.9981 16.8187 13.6359C16.8141 15.4172 15.3703 16.8609 13.5938 16.8609ZM37.2047 37.2047H31.6453V28.5C31.6453 26.4234 31.6078 23.7562 28.7531 23.7562C25.8609 23.7562 25.4156 26.0156 25.4156 28.35V37.2047H19.8609V19.3078H25.1953V21.7547H25.2703C26.0109 20.3484 27.825 18.8625 30.5344 18.8625C36.1688 18.8625 37.2047 22.5703 37.2047 27.3891V37.2047Z" fill="black"/>
<path d="M55.968 15.954V27H54.008V15.954H55.968ZM59.9465 20.882V27H57.9865V20.882H59.9465ZM57.9445 18.712C57.9445 18.432 58.0518 18.1987 58.2665 18.012C58.4905 17.816 58.7425 17.718 59.0225 17.718C59.2932 17.718 59.5358 17.816 59.7505 18.012C59.9652 18.1987 60.0725 18.432 60.0725 18.712C60.0725 18.992 59.9652 19.2253 59.7505 19.412C59.5358 19.5987 59.2932 19.692 59.0225 19.692C58.7425 19.692 58.4905 19.5987 58.2665 19.412C58.0518 19.2253 57.9445 18.992 57.9445 18.712ZM66.221 20.588C66.7997 20.588 67.2804 20.7607 67.663 21.106C68.055 21.4513 68.2557 21.89 68.265 22.422V27H66.305V23.15C66.277 22.5527 65.9784 22.254 65.409 22.254C64.961 22.254 64.6017 22.464 64.331 22.884C64.0604 23.304 63.925 23.8453 63.925 24.508V27H61.965V20.882H63.743L63.883 21.862C64.107 21.4607 64.415 21.148 64.807 20.924C65.2084 20.7 65.6797 20.588 66.221 20.588ZM72.7835 24.452L72.2375 24.858V27H70.2775V15.954H72.2375V22.87L75.1495 20.728L76.3395 21.778L74.1695 23.416L76.5635 27H74.2815L72.7835 24.452ZM80.8354 25.502C81.2274 25.502 81.6334 25.3667 82.0534 25.096L82.9214 26.552C82.5854 26.7387 82.2307 26.888 81.8574 27C81.4841 27.112 81.1294 27.168 80.7934 27.168C80.0654 27.168 79.4354 27.0327 78.9034 26.762C78.3807 26.482 77.9841 26.0947 77.7134 25.6C77.4427 25.096 77.3074 24.522 77.3074 23.878C77.3074 23.2807 77.4614 22.73 77.7694 22.226C78.0867 21.722 78.5161 21.3253 79.0574 21.036C79.5987 20.7373 80.1914 20.588 80.8354 20.588C81.7127 20.588 82.4314 20.8447 82.9914 21.358C83.5607 21.8713 83.9294 22.604 84.0974 23.556L79.6174 24.984C79.9161 25.3293 80.3221 25.502 80.8354 25.502ZM80.6814 22.114C80.2427 22.114 79.8927 22.2633 79.6314 22.562C79.3701 22.8607 79.2394 23.262 79.2394 23.766V23.892L81.9274 22.982C81.7314 22.4033 81.3161 22.114 80.6814 22.114ZM92.2417 15.954V27H90.2817V26.356C89.5723 26.8973 88.8163 27.168 88.0137 27.168C87.4443 27.168 86.9357 27.0327 86.4877 26.762C86.0397 26.4913 85.685 26.104 85.4237 25.6C85.1717 25.096 85.0457 24.5033 85.0457 23.822C85.0457 23.15 85.181 22.5713 85.4517 22.086C85.7317 21.5913 86.1143 21.218 86.5997 20.966C87.085 20.7047 87.6403 20.574 88.2657 20.574C88.667 20.574 89.045 20.6393 89.3997 20.77C89.7543 20.8913 90.053 21.0733 90.2957 21.316V15.954H92.2417ZM88.6577 25.516C89.0497 25.516 89.3763 25.4413 89.6377 25.292C89.899 25.1333 90.1137 24.9 90.2817 24.592V23.094C90.1697 22.7953 89.969 22.5573 89.6797 22.38C89.3903 22.2027 89.0497 22.114 88.6577 22.114C88.219 22.114 87.8363 22.2727 87.5097 22.59C87.1923 22.9073 87.0337 23.3087 87.0337 23.794C87.0337 24.1113 87.1083 24.4053 87.2577 24.676C87.407 24.9373 87.603 25.1427 87.8457 25.292C88.0977 25.4413 88.3683 25.516 88.6577 25.516ZM96.218 20.882V27H94.258V20.882H96.218ZM94.216 18.712C94.216 18.432 94.3233 18.1987 94.538 18.012C94.762 17.816 95.014 17.718 95.294 17.718C95.5647 17.718 95.8073 17.816 96.022 18.012C96.2367 18.1987 96.344 18.432 96.344 18.712C96.344 18.992 96.2367 19.2253 96.022 19.412C95.8073 19.5987 95.5647 19.692 95.294 19.692C95.014 19.692 94.762 19.5987 94.538 19.412C94.3233 19.2253 94.216 18.992 94.216 18.712ZM102.493 20.588C103.071 20.588 103.552 20.7607 103.935 21.106C104.327 21.4513 104.527 21.89 104.537 22.422V27H102.577V23.15C102.549 22.5527 102.25 22.254 101.681 22.254C101.233 22.254 100.873 22.464 100.603 22.884C100.332 23.304 100.197 23.8453 100.197 24.508V27H98.2365V20.882H100.015L100.155 21.862C100.379 21.4607 100.687 21.148 101.079 20.924C101.48 20.7 101.951 20.588 102.493 20.588Z" fill="black"/>
</svg>
