<svg width="63" height="63" viewBox="0 0 63 63" fill="none" xmlns="http://www.w3.org/2000/svg">
<path d="M38.6706 17.9035L37.9356 17.2035C36.1156 15.3135 36.4306 14.4385 38.2156 12.6535L47.7356 3.02849C50.5706 0.15849 51.0956 -1.20651 53.7906 1.34849L54.5256 2.04849L38.6706 17.9035ZM40.5256 19.4785L55.9256 4.07849C58.3756 7.36849 64.1156 16.2235 61.2806 22.7685C58.7256 28.6135 57.4656 28.8935 54.2806 33.2685C47.8056 40.6535 39.6506 48.5635 33.2806 54.5135C28.8706 57.6985 28.6956 59.1685 22.7806 61.5135C16.4806 63.9985 7.38061 58.3985 3.95061 56.0535L19.3506 40.6535L23.4806 46.3235C24.6706 47.9335 27.6806 46.1135 29.7806 44.0135C33.4206 40.3385 40.9106 32.8835 43.7806 29.7685C45.8456 27.7035 47.7006 24.6935 46.0906 23.4685L40.5256 19.4785ZM1.95561 54.6535L1.22061 53.9185C-1.15939 51.3285 0.205605 50.7685 3.04061 47.9685L12.6306 38.4485C14.4156 36.7335 15.2556 36.3485 17.0756 38.0635L17.7756 38.7985L1.95561 54.6535Z" fill="black"/>
</svg>
