<svg width="870" height="352" viewBox="0 0 870 352" fill="none" xmlns="http://www.w3.org/2000/svg">
<path d="M184 128H679V238H184V128Z" fill="black"/>
<path d="M306.139 153.232V190H299.179V173.152L287.659 189.52H287.563L276.475 174.208V190H269.755V153.232H269.803L287.707 178.624L306.043 153.232H306.139ZM344.647 154.672L331.399 179.008V190H324.439V179.008L311.431 154.672H320.023L328.135 170.992L336.055 154.672H344.647ZM376.225 154.672C380.545 154.672 383.889 155.744 386.257 157.888C388.625 160 389.809 162.896 389.809 166.576C389.809 168.688 389.393 170.672 388.561 172.528C387.761 174.352 386.433 175.856 384.577 177.04C382.753 178.224 380.385 178.816 377.473 178.816H372.481V190H365.521V154.672H376.225ZM377.425 172.048C378.737 172.048 379.793 171.76 380.593 171.184C381.393 170.576 381.969 169.872 382.321 169.072C382.673 168.272 382.849 167.504 382.849 166.768C382.849 165.52 382.481 164.32 381.745 163.168C381.009 161.984 379.585 161.392 377.473 161.392H372.481V172.048H377.425ZM415.093 190L407.653 178.768H402.997V190H396.037V154.672H406.741C411.125 154.672 414.517 155.744 416.917 157.888C419.349 160 420.565 162.896 420.565 166.576C420.565 168.752 420.101 170.8 419.173 172.72C418.277 174.608 416.885 176.096 414.997 177.184L423.205 190H415.093ZM402.997 172.048H407.941C409.829 172.048 411.205 171.504 412.069 170.416C412.933 169.296 413.365 168.096 413.365 166.816C413.365 165.536 412.997 164.32 412.261 163.168C411.525 161.984 410.101 161.392 407.989 161.392H402.997V172.048ZM425.564 172.384C425.564 169.184 426.364 166.192 427.964 163.408C429.596 160.624 431.788 158.416 434.54 156.784C437.324 155.12 440.332 154.288 443.564 154.288C446.796 154.288 449.788 155.12 452.54 156.784C455.324 158.416 457.532 160.624 459.164 163.408C460.828 166.192 461.66 169.184 461.66 172.384C461.66 175.648 460.828 178.656 459.164 181.408C457.532 184.16 455.324 186.352 452.54 187.984C449.788 189.584 446.796 190.384 443.564 190.384C440.3 190.384 437.292 189.584 434.54 187.984C431.788 186.352 429.596 184.16 427.964 181.408C426.364 178.656 425.564 175.648 425.564 172.384ZM432.764 172.384C432.764 174.432 433.244 176.32 434.204 178.048C435.196 179.776 436.524 181.152 438.188 182.176C439.884 183.168 441.756 183.664 443.804 183.664C445.788 183.664 447.596 183.168 449.228 182.176C450.86 181.152 452.14 179.792 453.068 178.096C453.996 176.368 454.46 174.464 454.46 172.384C454.46 170.272 453.98 168.352 453.02 166.624C452.06 164.896 450.748 163.536 449.084 162.544C447.452 161.52 445.628 161.008 443.612 161.008C441.596 161.008 439.756 161.52 438.092 162.544C436.46 163.536 435.164 164.896 434.204 166.624C433.244 168.352 432.764 170.272 432.764 172.384ZM478.679 182.56C478.679 185.568 478.071 188.16 476.855 190.336C475.671 192.544 473.991 194.24 471.815 195.424C469.639 196.608 467.127 197.248 464.279 197.344V190.576C469.207 190.32 471.671 187.6 471.671 182.416V154.672H478.679V182.56ZM511.914 154.672V161.392H494.778V168.928H509.946V175.648H494.778V183.28H512.586V190H487.818V154.672H511.914ZM546.283 187.072C545.387 187.808 543.963 188.544 542.011 189.28C540.059 190.016 537.931 190.384 535.627 190.384C531.947 190.384 528.747 189.584 526.027 187.984C523.307 186.384 521.227 184.24 519.787 181.552C518.347 178.832 517.627 175.856 517.627 172.624C517.627 169.072 518.347 165.904 519.787 163.12C521.227 160.336 523.243 158.176 525.835 156.64C528.427 155.072 531.419 154.288 534.811 154.288C536.955 154.288 538.939 154.576 540.763 155.152C542.587 155.728 544.187 156.448 545.563 157.312L542.827 163.888C540.299 161.968 537.707 161.008 535.051 161.008C533.259 161.008 531.579 161.504 530.011 162.496C528.443 163.488 527.195 164.848 526.267 166.576C525.339 168.272 524.875 170.16 524.875 172.24C524.875 174.512 525.307 176.512 526.171 178.24C527.035 179.936 528.267 181.264 529.867 182.224C531.467 183.184 533.339 183.664 535.483 183.664C537.211 183.664 538.763 183.392 540.139 182.848C541.515 182.272 542.603 181.6 543.403 180.832L546.283 187.072ZM574.663 154.672V161.392H566.071V190H559.111V161.392H550.855V154.672H574.663ZM600.244 163.216C597.172 161.52 594.5 160.672 592.228 160.672C590.692 160.672 589.492 160.976 588.628 161.584C587.796 162.192 587.38 163.104 587.38 164.32C587.38 165.44 587.988 166.432 589.204 167.296C590.452 168.128 592.1 168.928 594.148 169.696C595.812 170.304 597.236 171.008 598.42 171.808C599.604 172.576 600.58 173.648 601.348 175.024C602.148 176.4 602.548 178.144 602.548 180.256C602.548 182.08 602.068 183.776 601.108 185.344C600.18 186.88 598.804 188.112 596.98 189.04C595.156 189.936 592.98 190.384 590.452 190.384C588.34 190.384 586.244 190.08 584.164 189.472C582.084 188.832 580.148 187.872 578.356 186.592L581.428 181.168C582.644 182.064 584.036 182.8 585.604 183.376C587.172 183.952 588.58 184.24 589.828 184.24C591.3 184.24 592.58 183.936 593.668 183.328C594.756 182.688 595.3 181.664 595.3 180.256C595.3 178.432 593.588 176.848 590.164 175.504C588.148 174.704 586.468 173.936 585.124 173.2C583.78 172.464 582.612 171.408 581.62 170.032C580.66 168.656 580.18 166.928 580.18 164.848C580.18 161.808 581.172 159.36 583.156 157.504C585.172 155.648 587.844 154.64 591.172 154.48C593.796 154.48 595.988 154.784 597.748 155.392C599.508 155.968 601.22 156.8 602.884 157.888L600.244 163.216Z" fill="white"/>
<g filter="url(#filter0_d)">
<rect x="322" y="216" width="243" height="2" fill="#C4C4C4"/>
<rect x="322.5" y="216.5" width="242" height="1" stroke="white"/>
</g>
<line x1="0.284023" y1="0.588502" x2="184.284" y2="127.588" stroke="black"/>
<line x1="685.284" y1="224.589" x2="869.284" y2="351.589" stroke="black"/>
<defs>
<filter id="filter0_d" x="318" y="216" width="251" height="10" filterUnits="userSpaceOnUse" color-interpolation-filters="sRGB">
<feFlood flood-opacity="0" result="BackgroundImageFix"/>
<feColorMatrix in="SourceAlpha" type="matrix" values="0 0 0 0 0 0 0 0 0 0 0 0 0 0 0 0 0 0 127 0"/>
<feOffset dy="4"/>
<feGaussianBlur stdDeviation="2"/>
<feColorMatrix type="matrix" values="0 0 0 0 0 0 0 0 0 0 0 0 0 0 0 0 0 0 0.25 0"/>
<feBlend mode="normal" in2="BackgroundImageFix" result="effect1_dropShadow"/>
<feBlend mode="normal" in="SourceGraphic" in2="effect1_dropShadow" result="shape"/>
</filter>
</defs>
</svg>
