<svg width="111" height="51" viewBox="0 0 111 51" fill="none" xmlns="http://www.w3.org/2000/svg">
<g filter="url(#filter0_d)">
<path d="M63.358 16.696V18.656H58.36V20.854H62.784V22.814H58.36V25.04H63.554V27H56.33V16.696H63.358ZM67.7122 22.94V24.648H65.0802V22.94H67.7122ZM77.6755 20.574C78.2728 20.574 78.7488 20.742 79.1035 21.078C79.4675 21.414 79.6588 21.8573 79.6775 22.408V27H77.7315V23.22C77.7128 22.912 77.6615 22.6833 77.5775 22.534C77.4935 22.3753 77.3302 22.2867 77.0875 22.268C76.6302 22.268 76.2708 22.492 76.0095 22.94C75.7575 23.3787 75.6315 23.8967 75.6315 24.494V27H73.6715V23.22C73.6528 22.912 73.5968 22.6833 73.5035 22.534C73.4102 22.3753 73.2375 22.2867 72.9855 22.268C72.5468 22.268 72.2015 22.492 71.9495 22.94C71.6975 23.3787 71.5715 23.8873 71.5715 24.466V27H69.6115V20.882H71.3895L71.5295 21.848C72.0242 20.9987 72.7615 20.574 73.7415 20.574C74.2362 20.574 74.6422 20.6767 74.9595 20.882C75.2862 21.078 75.5102 21.372 75.6315 21.764C75.8928 21.4 76.2008 21.1107 76.5555 20.896C76.9195 20.6813 77.2928 20.574 77.6755 20.574ZM88.2775 20.882V27H86.3175V26.244C85.7295 26.86 85.0481 27.168 84.2735 27.168C83.3681 27.168 82.6308 26.8973 82.0615 26.356C81.5015 25.8147 81.2215 25.012 81.2215 23.948C81.2215 23.276 81.3568 22.688 81.6275 22.184C81.9075 21.6707 82.2761 21.274 82.7335 20.994C83.1908 20.714 83.6808 20.574 84.2035 20.574C84.7448 20.574 85.1741 20.658 85.4915 20.826C85.8088 20.9847 86.0888 21.2133 86.3315 21.512L86.4575 20.882H88.2775ZM84.8335 25.572C85.5148 25.572 86.0095 25.264 86.3175 24.648V23.15C86.2055 22.8513 86.0095 22.6133 85.7295 22.436C85.4588 22.2587 85.1368 22.17 84.7635 22.17C84.3341 22.17 83.9655 22.3287 83.6575 22.646C83.3588 22.9633 83.2095 23.3647 83.2095 23.85C83.2095 24.1673 83.2841 24.4613 83.4335 24.732C83.5828 24.9933 83.7788 25.1987 84.0215 25.348C84.2735 25.4973 84.5441 25.572 84.8335 25.572ZM92.2571 20.882V27H90.2971V20.882H92.2571ZM90.2551 18.712C90.2551 18.432 90.3624 18.1987 90.5771 18.012C90.8011 17.816 91.0531 17.718 91.3331 17.718C91.6037 17.718 91.8464 17.816 92.0611 18.012C92.2757 18.1987 92.3831 18.432 92.3831 18.712C92.3831 18.992 92.2757 19.2253 92.0611 19.412C91.8464 19.5987 91.6037 19.692 91.3331 19.692C91.0531 19.692 90.8011 19.5987 90.5771 19.412C90.3624 19.2253 90.2551 18.992 90.2551 18.712ZM96.2356 15.954V27H94.2756V15.954H96.2356Z" fill="black"/>
<path d="M47.9261 5H6.47386C6.08301 5.00051 5.70831 5.17239 5.43199 5.47794C5.15567 5.78348 5.00031 6.19772 5.00001 6.62974V9.90833C5.00001 10.0594 5.1482 10.2327 5.26929 10.3029L27.0576 24.059C27.1134 24.0943 27.1767 24.1125 27.2409 24.1119C27.3066 24.1121 27.3712 24.0928 27.4278 24.0559L48.5575 10.3162C48.6763 10.2429 48.9912 10.0492 49.1094 9.95995C49.2524 9.85224 49.4 9.75472 49.4 9.5616V6.6291C49.3995 6.19719 49.2441 5.78312 48.9678 5.47771C48.6915 5.17231 48.3169 5.00051 47.9261 5V5Z" fill="black"/>
<path d="M49.2161 14.8519C49.1593 14.8162 49.0951 14.7976 49.0298 14.798C48.9645 14.7985 48.9005 14.818 48.8441 14.8545L36.8867 22.6315C36.8391 22.6622 36.7983 22.7044 36.7674 22.7548C36.7365 22.8053 36.7163 22.8629 36.7082 22.9232C36.7002 22.9835 36.7046 23.045 36.721 23.1032C36.7374 23.1614 36.7655 23.2148 36.8031 23.2594L48.7623 37.5099C48.7965 37.551 48.8382 37.5838 48.8845 37.6062C48.9309 37.6286 48.9809 37.6401 49.0315 37.6399C49.1292 37.6397 49.2228 37.5968 49.2919 37.5204C49.361 37.4441 49.3999 37.3406 49.4 37.2326V15.2057C49.4003 15.1341 49.3834 15.0636 49.3511 15.0015C49.3188 14.9394 49.2722 14.8878 49.2161 14.8519Z" fill="black"/>
<path d="M33.4403 25.2419C33.3836 25.1735 33.3073 25.1288 33.2243 25.1151C33.1413 25.1014 33.0566 25.1196 32.9842 25.1666L28.1913 28.284C27.9105 28.4633 27.5923 28.5589 27.268 28.5612C26.9437 28.5635 26.6244 28.4726 26.3415 28.2974L22.1235 25.6338C22.0554 25.591 21.9768 25.5732 21.8989 25.583C21.8211 25.5929 21.7481 25.6299 21.6905 25.6886L5.67306 42.1109C5.63107 42.1543 5.59883 42.2079 5.57891 42.2675C5.55899 42.3271 5.55194 42.391 5.55832 42.4542C5.56471 42.5173 5.58435 42.5779 5.61568 42.6312C5.64701 42.6845 5.68917 42.7289 5.73879 42.761C5.98789 42.9229 6.22835 43 6.47283 43H47.5013C47.5731 43.0001 47.6433 42.977 47.7033 42.9333C47.7633 42.8897 47.8104 42.8276 47.8386 42.7546C47.8674 42.6821 47.8763 42.6018 47.8642 42.5238C47.8521 42.4457 47.8195 42.3733 47.7706 42.3155L33.4403 25.2419Z" fill="black"/>
<path d="M18.1666 23.7463C18.209 23.703 18.2417 23.6492 18.2618 23.5893C18.282 23.5295 18.2891 23.4652 18.2826 23.4018C18.2762 23.3383 18.2563 23.2774 18.2246 23.224C18.193 23.1706 18.1504 23.1261 18.1003 23.0943L5.54953 15.1705C5.49352 15.1353 5.43014 15.117 5.36573 15.1174C5.30132 15.1179 5.23814 15.137 5.1825 15.1728C5.12687 15.2087 5.08073 15.2601 5.04871 15.3219C5.01668 15.3837 4.99989 15.4536 5.00001 15.5248V36.316C4.9996 36.3954 5.02027 36.4732 5.05945 36.5397C5.09864 36.6063 5.15462 36.6587 5.22046 36.6904C5.28631 36.7222 5.35913 36.7319 5.42992 36.7183C5.50071 36.7048 5.56635 36.6686 5.61872 36.6143L18.1666 23.7463V23.7463Z" fill="black"/>
</g>
<defs>
<filter id="filter0_d" x="1" y="5" width="99.2356" height="46" filterUnits="userSpaceOnUse" color-interpolation-filters="sRGB">
<feFlood flood-opacity="0" result="BackgroundImageFix"/>
<feColorMatrix in="SourceAlpha" type="matrix" values="0 0 0 0 0 0 0 0 0 0 0 0 0 0 0 0 0 0 127 0"/>
<feOffset dy="4"/>
<feGaussianBlur stdDeviation="2"/>
<feColorMatrix type="matrix" values="0 0 0 0 0 0 0 0 0 0 0 0 0 0 0 0 0 0 0.25 0"/>
<feBlend mode="normal" in2="BackgroundImageFix" result="effect1_dropShadow"/>
<feBlend mode="normal" in="SourceGraphic" in2="effect1_dropShadow" result="shape"/>
</filter>
</defs>
</svg>
