<svg width="111" height="48" viewBox="0 0 111 48" fill="none" xmlns="http://www.w3.org/2000/svg">
<path d="M47.73 5.25H9.43499C8.51404 5.25 7.76999 5.92031 7.76999 6.75V41.25C7.76999 42.0797 8.51404 42.75 9.43499 42.75H47.73C48.6509 42.75 49.395 42.0797 49.395 41.25V6.75C49.395 5.92031 48.6509 5.25 47.73 5.25ZM39.7848 18.8297C39.8004 19.05 39.8004 19.2797 39.8004 19.5047C39.8004 26.3859 33.9833 34.3125 23.3533 34.3125C20.0754 34.3125 17.0368 33.4547 14.4768 31.9781C14.9451 32.025 15.3926 32.0437 15.8713 32.0437C18.5769 32.0437 21.064 31.2188 23.0464 29.8219C20.5072 29.775 18.374 28.275 17.6455 26.2125C18.5353 26.3297 19.3365 26.3297 20.2523 26.1188C18.9449 25.8795 17.7697 25.2398 16.9265 24.3084C16.0833 23.377 15.624 22.2113 15.6267 21.0094V20.9437C16.3916 21.3328 17.2917 21.5719 18.2335 21.6047C17.4418 21.1293 16.7925 20.4854 16.3432 19.7298C15.894 18.9743 15.6586 18.1306 15.6579 17.2734C15.6579 16.3031 15.9389 15.4172 16.4436 14.6484C17.8948 16.2578 19.7056 17.5741 21.7584 18.5117C23.8112 19.4493 26.0601 19.9873 28.3588 20.0906C27.5419 16.5516 30.4764 13.6875 34.0041 13.6875C35.6691 13.6875 37.1676 14.3156 38.2239 15.3281C39.5299 15.1078 40.7786 14.6672 41.8921 14.0766C41.4602 15.2812 40.5549 16.2984 39.353 16.9406C40.5185 16.8281 41.6423 16.5375 42.683 16.1297C41.8973 17.1703 40.9139 18.0938 39.7848 18.8297V18.8297Z" fill="black"/>
<path d="M61.262 17.194V19.854H62.746V21.38H61.262V26H59.302V21.38H58.35V19.854H59.302V17.194H61.262ZM72.6658 19.882L69.9078 26.364L67.9478 22.304L66.1558 26.364L63.3698 19.882H65.2738L66.4078 22.472L67.2618 20.582L66.9398 19.882H68.6058L69.7538 22.584L70.7618 19.882H72.6658ZM75.7681 19.882V26H73.8081V19.882H75.7681ZM73.7661 17.712C73.7661 17.432 73.8734 17.1987 74.0881 17.012C74.3121 16.816 74.5641 16.718 74.8441 16.718C75.1147 16.718 75.3574 16.816 75.5721 17.012C75.7867 17.1987 75.8941 17.432 75.8941 17.712C75.8941 17.992 75.7867 18.2253 75.5721 18.412C75.3574 18.5987 75.1147 18.692 74.8441 18.692C74.5641 18.692 74.3121 18.5987 74.0881 18.412C73.8734 18.2253 73.7661 17.992 73.7661 17.712ZM80.3206 17.194V19.854H81.8046V21.38H80.3206V26H78.3606V21.38H77.4086V19.854H78.3606V17.194H80.3206ZM85.8304 17.194V19.854H87.3144V21.38H85.8304V26H83.8704V21.38H82.9184V19.854H83.8704V17.194H85.8304ZM91.8581 24.502C92.2501 24.502 92.6561 24.3667 93.0761 24.096L93.9441 25.552C93.6081 25.7387 93.2535 25.888 92.8801 26C92.5068 26.112 92.1521 26.168 91.8161 26.168C91.0881 26.168 90.4581 26.0327 89.9261 25.762C89.4035 25.482 89.0068 25.0947 88.7361 24.6C88.4655 24.096 88.3301 23.522 88.3301 22.878C88.3301 22.2807 88.4841 21.73 88.7921 21.226C89.1095 20.722 89.5388 20.3253 90.0801 20.036C90.6215 19.7373 91.2141 19.588 91.8581 19.588C92.7355 19.588 93.4541 19.8447 94.0141 20.358C94.5835 20.8713 94.9521 21.604 95.1201 22.556L90.6401 23.984C90.9388 24.3293 91.3448 24.502 91.8581 24.502ZM91.7041 21.114C91.2655 21.114 90.9155 21.2633 90.6541 21.562C90.3928 21.8607 90.2621 22.262 90.2621 22.766V22.892L92.9501 21.982C92.7541 21.4033 92.3388 21.114 91.7041 21.114ZM98.4624 21.282C98.6304 20.9553 98.8591 20.6613 99.1484 20.4C99.4471 20.1387 99.7504 19.938 100.058 19.798C100.366 19.6487 100.609 19.574 100.786 19.574L100.688 21.534C100.632 21.5247 100.553 21.52 100.45 21.52C100.058 21.52 99.7131 21.6227 99.4144 21.828C99.1157 22.0333 98.8871 22.2993 98.7284 22.626C98.5697 22.9433 98.4904 23.27 98.4904 23.606V26H96.5444V19.882H98.3084L98.4624 21.282Z" fill="black"/>
</svg>
